<svg version="1.2" xmlns="http://www.w3.org/2000/svg" viewBox="0 0 1024 1024" width="1024" height="1024"><style>.a{fill:#020202}</style><path fill-rule="evenodd" class="a" d="m518 75.7c7.4 0.1 18 0.5 23.5 0.8 5.5 0.3 17.2 1.4 26 2.6 8.8 1.1 21.9 3.1 29 4.5 7.1 1.4 19.2 4.1 26.8 6 7.5 1.9 18.8 5 24.9 7 6.2 2 18.7 6.5 27.8 10.1 9.1 3.6 23.3 9.8 31.5 13.8 8.3 4 21.8 11.4 30 16.3 8.3 4.9 20 12.5 26.2 16.8 6.1 4.4 18.1 13.5 26.5 20.4 8.4 6.9 20.6 17.7 27.2 24 6.5 6.3 16.7 17.1 22.5 24 5.9 6.9 13.2 15.7 16.2 19.5 3.1 3.8 9.7 12.8 14.8 20 5.2 7.1 13.4 19.7 18.3 28 4.9 8.2 11.8 20.6 15.3 27.5 3.4 6.9 8.9 18.6 12 26 3.1 7.4 7.8 20 10.5 28 2.6 8 7.1 23.7 9.9 35 2.8 11.3 6 25.9 7.1 32.5 1.1 6.6 2.7 17.6 3.6 24.5 0.9 7 1.8 24.6 2.1 40 0.3 16.9 0.1 33.5-0.6 43-0.7 8.5-2.1 21.6-3.2 29-1.1 7.4-3.6 21.1-5.5 30.5-1.9 9.4-4.9 21.7-6.5 27.5-1.7 5.8-5 15.9-7.4 22.5-2.4 6.6-7.3 18.7-10.8 27-3.5 8.2-9.5 21.1-13.2 28.5-3.7 7.4-10.1 19.1-14.3 26-4.1 6.9-10.8 17.5-15 23.5-4.1 6-10.6 15-14.5 20-3.9 5-11.4 14-16.8 20-5.3 6-17 18.2-26.1 27-9 8.8-21.1 19.7-26.8 24.1-5.8 4.5-15.2 11.5-21 15.5-5.8 4.1-16.6 11.2-24 15.8-7.4 4.7-21.1 12.4-30.5 17.2-9.4 4.8-24.4 11.9-33.5 15.8-9.1 3.8-23.2 9.3-31.5 12.1-8.2 2.8-22 6.8-30.5 8.9-8.5 2.2-22.2 5-30.5 6.5-8.2 1.4-22 3.2-30.5 4-8.5 0.8-22.7 1.8-31.5 2.1-9 0.4-23.9 0.2-34-0.5-9.9-0.6-23.9-1.8-31-2.6-7.1-0.9-19.1-2.7-26.5-4-7.4-1.4-20.2-4.2-28.5-6.4-8.2-2.1-20.6-5.7-27.5-8-6.9-2.3-18.8-6.7-26.5-9.7-7.7-3.1-20.1-8.4-27.5-11.8-7.4-3.5-18.9-9.3-25.5-13-6.6-3.7-18.3-10.9-26-16-7.7-5.1-19.8-13.7-27-19-7.2-5.4-17.1-13.2-22-17.3-4.9-4.2-15.1-13.7-22.5-21.1-7.4-7.5-18.2-19.3-24-26.2-5.8-6.9-14.6-18.3-19.5-25.2-4.9-7-13.2-19.3-18.3-27.4-5.1-8.2-13.5-23.1-18.6-33.3-5.1-10.2-12-25.5-15.3-34-3.4-8.5-8.2-22-10.8-30-2.5-8-5.9-19.9-7.5-26.5-1.6-6.6-4-18.1-5.4-25.5-1.3-7.4-3.1-19.4-4-26.5-0.8-7.1-2.1-20.9-2.7-30.5-0.6-10.1-0.8-24.7-0.5-34.5 0.4-9.4 1.4-23.5 2.2-31.5 0.8-8 2.6-20.8 3.9-28.5 1.3-7.7 3.5-18.9 5-25 1.4-6.1 4.4-17.3 6.7-25 2.2-7.7 6.2-19.9 8.9-27 2.6-7.1 6.4-17.1 8.4-22 2-4.9 6.3-14.4 9.5-21 3.2-6.6 9.7-18.8 14.5-27 4.7-8.3 11.2-18.8 14.3-23.5 3.2-4.7 10.5-14.8 16.2-22.5 5.7-7.7 15.2-19.6 21-26.5 5.9-6.9 15.2-16.8 20.6-22 5.5-5.2 14.2-13.1 19.4-17.4 5.2-4.4 15.8-12.7 23.5-18.4 7.7-5.8 18.3-13.3 23.5-16.7 5.2-3.4 14.4-9 20.5-12.5 6.1-3.5 18.6-10.1 28-14.7 9.4-4.6 22.9-10.6 30-13.5 7.1-2.8 19.1-7.1 26.5-9.5 7.4-2.4 19.8-5.9 27.5-7.8 7.7-1.9 20.1-4.6 27.5-5.9 7.4-1.4 20-3.2 28-4.1 8-0.9 21.3-2 29.5-2.3 8.3-0.4 21.1-0.6 28.5-0.5zm-44.5 48.3c-5.5 0.5-15.2 1.7-21.5 2.5-6.3 0.9-18.7 3.2-27.5 5.2-8.8 1.9-21.2 5.1-27.5 7-6.3 1.9-18.7 6.4-27.5 10-8.8 3.6-20.9 8.8-27 11.7-6.1 2.9-15.9 8-22 11.5-6.1 3.5-18 10.9-26.5 16.6-8.5 5.6-20.2 14.1-26 18.7-5.8 4.7-14.5 12.2-19.4 16.9-4.9 4.6-15.2 15.1-22.9 23.4-7.7 8.2-17.4 19.5-21.7 25-4.2 5.5-10.1 13.6-13 18-3 4.4-9.9 15.4-15.3 24.5-5.4 9.1-12.9 22.8-16.6 30.5-3.8 7.7-9.1 19.4-11.9 26-2.8 6.6-6.6 17.2-8.6 23.5-1.9 6.3-5 18.7-7 27.5-1.9 8.8-4.4 22.3-5.5 30-1.1 7.7-2.6 21-3.2 29.5-0.7 9.6-0.9 24.1-0.6 38 0.4 12.4 1.3 28.6 2.2 36 0.8 7.4 2.2 18 3 23.5 0.9 5.5 3.1 17 5 25.5 1.9 8.5 5.5 21.6 8 29 2.6 7.4 6.6 18 9 23.5 2.4 5.5 7.2 16.1 10.7 23.5 3.6 7.4 9.3 18.5 12.8 24.5 3.5 6 11.6 18.9 18.1 28.5 6.4 9.6 14.8 21.1 18.5 25.5 3.7 4.4 11.1 12.7 16.3 18.4 5.3 5.7 15.2 15.5 22.1 21.7 6.9 6.2 15.6 13.8 19.5 16.9 3.9 3.1 14.4 10.7 23.5 16.9 9.1 6.3 22.6 14.9 30 19.1 7.4 4.3 18.4 10.2 24.5 13.1 6.1 2.8 18.9 8.1 28.5 11.7 9.6 3.6 24 8.4 32 10.7 8 2.2 21 5.4 29 7 8 1.6 19.9 3.6 26.5 4.4 6.6 0.9 18.3 2 26 2.6 7.7 0.5 19.4 1 26 1 6.6 0 18.5-0.5 26.5-1 8-0.6 20.8-2 28.5-3.1 7.7-1.1 20.3-3.3 28-5 7.7-1.6 19.9-4.7 27-6.8 7.1-2.2 20.9-6.9 30.5-10.6 9.6-3.7 23.8-9.8 31.5-13.5 7.7-3.8 20.5-11 28.5-16 8-5.1 18.8-12.2 24-15.8 5.2-3.7 14.9-11 21.5-16.3 7.4-5.9 19.4-17.3 31.4-30 10.7-11.2 23.2-25.1 27.8-30.9 4.6-5.8 12.3-16.4 17.2-23.5 4.8-7.1 11.2-17 14.1-22 2.9-5 8.3-15.1 12-22.5 3.7-7.4 9.1-19.1 12-26 2.9-6.9 7.5-19.3 10.2-27.5 2.8-8.3 6.7-21.8 8.8-30 2.1-8.3 4.5-20 5.4-26 0.9-6 2.1-16.4 2.7-23 0.6-6.6 1.1-24.6 1.2-40 0-15.4-0.5-34.1-1.2-41.5-0.7-7.4-2.1-19.1-3.2-26-1.1-6.9-3.8-19.9-6-29-2.2-9.1-6-22.5-8.5-29.8-2.4-7.2-7.1-19.6-10.5-27.5-3.3-7.8-9.7-20.7-14.1-28.7-4.5-8-10.8-18.8-14.1-24-3.3-5.2-9-13.8-12.7-19-3.7-5.2-10.8-14.4-15.7-20.5-4.9-6.1-13-15.2-17.9-20.4-4.9-5.2-14.1-14.2-20.4-19.9-6.3-5.8-16.7-14.7-23-19.7-6.3-5-16.9-13-23.5-17.7-6.6-4.7-15.8-10.8-20.5-13.5-4.7-2.7-11.9-6.8-16-9-4.1-2.2-15.1-7.5-24.5-11.6-9.4-4.1-24.4-10-33.5-13.1-9.1-3-21-6.6-26.5-8-5.5-1.4-16.1-3.6-23.5-5-7.4-1.4-19.6-3.2-27-4.1-9.3-1.2-23.3-1.8-45-2-17.3-0.2-36 0.1-41.5 0.5zm42.5 116.5c11.8 0.2 28 1.1 36 2 8 0.9 21 2.7 29 4.1 8 1.3 20.1 3.8 27 5.5 6.9 1.7 16.3 4.5 21 6.1 4.7 1.7 12.5 5.1 17.5 7.5 5 2.5 12.3 6.9 16.4 9.7 4.1 2.8 10.2 8.1 13.7 11.8 3.5 3.8 7.8 9.2 9.4 12 1.7 2.9 3.9 8.2 5 11.8 2 6.4 2 9 2 196.5 0 172.3-0.1 190.5-1.6 195.5-0.9 3-2.9 8-4.4 11-1.6 3-4.8 7.8-7.2 10.6-2.4 2.8-6.5 7.1-9.3 9.5-2.7 2.3-8.1 6.3-12 8.8-3.9 2.5-12.4 7.1-19 10.2-6.6 3.1-17.1 7.3-23.3 9.3-6.1 2-15.1 4.5-19.9 5.5-4.9 1.1-13.5 2.7-19.3 3.6-5.8 0.9-16.8 2.3-24.5 3.1-7.7 0.8-22.8 1.7-33.5 2-14.2 0.5-24.6 0.2-38-1-10.2-0.9-23.2-2.4-29-3.2-5.8-0.8-15.9-2.8-22.5-4.4-6.6-1.6-17.4-4.7-24-7-6.6-2.3-16.5-6.3-22-9-5.5-2.6-13.6-7.2-18-10-4.4-2.9-11.1-8.3-14.8-11.9-3.8-3.6-8.8-9.5-11.2-13.1-2.4-3.6-5.4-9.2-9-18.5v-382l2.4-7c1.4-3.9 4.6-10.1 7.2-14 2.5-3.9 6.8-9 9.5-11.4 2.7-2.4 8-6.5 11.9-9.1 3.9-2.6 10.3-6.4 14.3-8.4 3.9-2 10.6-5 14.7-6.6 4.1-1.6 12.3-4.4 18.3-6 5.9-1.7 17.4-4.4 25.7-6 8.3-1.6 20.4-3.6 27-4.5 6.6-0.9 16.7-2.1 22.5-2.5 5.8-0.5 20.2-0.7 32-0.5zm-44.5 48c-6.6 0.7-15.4 1.8-19.5 2.4-4.1 0.7-12.7 2.3-19 3.7-6.3 1.5-15.3 4-20 5.6-4.7 1.7-12.3 5-17 7.3-4.7 2.4-10.6 6.2-13.2 8.4-3.1 2.6-4.8 4.9-4.8 6.3 0 1.4 1.8 4.1 4.7 6.9 2.7 2.6 6.6 5.8 8.8 7.1 2.2 1.4 8.3 4.2 13.5 6.3 5.2 2.1 13.1 4.9 17.5 6.2 4.4 1.3 13.9 3.4 21 4.8 7.1 1.3 18.9 3 26 3.7 7.9 0.8 25.7 1.3 45 1.3 24.4-0.1 35.5-0.5 46.5-1.8 8-1 19.9-3 26.5-4.4 6.6-1.3 15.6-3.6 20-5 4.4-1.4 10.7-3.7 14-5.2 3.3-1.5 8.7-4.5 12-6.8 3.3-2.2 7.2-5.4 8.8-7.1 1.6-2 2.7-4.4 2.7-6.2 0-2.1-0.9-3.8-3.3-5.8-1.7-1.5-6.3-4.6-10.2-6.9-3.9-2.3-11-5.6-16-7.3-5-1.7-14.4-4.4-21-6-6.6-1.6-18.3-3.8-26-4.9-7.7-1.1-19.2-2.5-25.5-3-6.3-0.6-22.3-1-35.5-1-13.2 0.1-29.4 0.7-36 1.4zm-94.9 91c-0.3 0.8-0.6 70.7-0.6 155.3v153.7c3.5 6.1 7.2 10.1 10.5 12.7 3.3 2.7 10.5 7.1 16 9.8 5.5 2.7 14.1 6.3 19 7.9 4.9 1.7 14.6 4.1 21.5 5.5 6.9 1.4 18.1 3.2 25 4.1 6.9 0.9 21.9 1.9 33.5 2.2 12.9 0.4 26.8 0.1 36-0.6 8.3-0.7 20.9-2.1 28-3.2 7.1-1.1 16.8-2.8 21.5-3.9 4.7-1.1 12.5-3.3 17.5-5 5-1.6 11.9-4.2 15.5-5.8 3.6-1.5 9.2-4.7 12.5-6.9 3.3-2.3 7.4-5.6 9.2-7.4 1.7-1.9 3.7-4.6 4.2-6.2 0.8-1.8 1.1-50.6 1.1-157.2 0-102-0.3-154.7-1-155-0.5-0.3-4 0.9-7.7 2.6-3.8 1.7-9.7 4.2-13.3 5.6-3.6 1.3-12.4 4-19.5 5.8-7.1 1.9-19.3 4.3-27 5.4-7.7 1.1-20.3 2.5-28 3.2-7.7 0.6-24.4 1.1-37 1.1-13 0-30.8-0.7-41-1.7-9.9-0.9-24.3-2.7-32-4-7.7-1.4-18.8-3.8-24.7-5.5-6-1.6-15-4.6-20-6.6-5.1-2-11-4.5-13-5.5-2.1-1.1-4.2-1.9-4.7-1.9-0.5 0-1.2 0.7-1.5 1.5z"/></svg>