<svg version="1.2" xmlns="http://www.w3.org/2000/svg" viewBox="0 0 1024 1024" width="1024" height="1024"><style>.a{fill:#010101}</style><path fill-rule="evenodd" class="a" d="m511.3 76.2c20.1-0.1 33.2 0.3 43.9 1.4 8.4 0.8 21.6 2.6 29.3 3.9 7.7 1.3 19.4 3.5 26 5 6.6 1.5 17.6 4.3 24.5 6.2 6.9 1.9 18.8 5.7 26.5 8.5 7.7 2.8 18.7 7.1 24.5 9.5 5.8 2.5 16.6 7.6 24 11.3 7.4 3.7 19.6 10.3 27 14.6 7.4 4.4 19.8 12.3 27.5 17.6 7.7 5.3 20.1 14.5 27.5 20.5 7.4 5.9 17.7 14.9 22.9 19.8 5.1 4.9 16.5 17.3 25.2 27.5 8.8 10.2 20.7 25 26.5 33 5.8 8 14.4 20.8 19.1 28.5 4.8 7.7 11.9 20.3 15.9 28 4 7.7 9.7 19.6 12.7 26.5 3 6.9 7.8 19.2 10.6 27.5 2.9 8.2 7 21.5 9.2 29.5 2.2 8 5.3 21 6.9 29 1.6 8 3.6 19.2 4.4 25 0.8 5.8 2 14.8 2.6 20 0.6 5.2 1.4 20.5 1.7 34 0.3 15 0.1 29.9-0.6 38.5-0.6 7.7-1.8 19.6-2.7 26.5-0.8 6.9-2.9 19.5-4.5 28-1.7 8.5-4.5 21.4-6.4 28.5-1.9 7.1-5.6 19.5-8.3 27.5-2.7 8-7 19.7-9.6 26-2.6 6.3-8.5 19.1-13.1 28.5-4.6 9.4-11.6 22.4-15.5 29-4 6.6-9.9 16-13.3 21-3.3 5-8.7 12.6-12 17-3.3 4.4-10.2 13-15.2 19-5 6-14.5 16.6-21.1 23.4-6.5 6.8-18 17.6-25.4 24-7.4 6.4-18 15.1-23.5 19.2-5.5 4.2-15 10.9-21 15-6 4-15.7 10.2-21.5 13.7-5.8 3.4-18.8 10.5-29 15.6-10.2 5.1-25.5 12-34 15.3-8.5 3.4-21.1 8-28 10.3-6.9 2.2-17.5 5.4-23.5 7-6 1.6-16.9 4.1-24 5.5-7.1 1.4-19.8 3.5-28 4.6-11.4 1.6-22.7 2.2-47 2.6-25.4 0.4-35.6 0.2-49.5-1.2-9.6-0.9-24.3-2.8-32.5-4.1-8.3-1.4-22.2-4.4-31-6.6-8.8-2.2-23.9-6.6-33.5-9.8-9.6-3.2-23.4-8.3-30.5-11.3-7.1-3.1-18.2-8-24.5-11-6.3-3-17.6-8.9-25-13.2-7.4-4.2-19.8-11.9-27.5-17.1-7.7-5.1-18.9-13.2-25-17.9-6.1-4.7-17-13.8-24.4-20.3-7.4-6.4-19.3-18-26.5-25.7-7.2-7.7-16.6-18.3-20.8-23.5-4.2-5.2-11.3-14.7-15.8-21-4.5-6.3-11.8-17.4-16.3-24.5-4.4-7.1-11.3-19.3-15.3-27-4-7.7-9.9-20.3-13.2-28-3.3-7.7-8.4-21.2-11.5-30-3-8.8-7.3-23.2-9.5-32-2.2-8.8-5-20.5-6.1-26-1.1-5.5-2.7-14.3-3.5-19.5-0.9-5.2-2.3-15.6-3.1-23-0.9-7.4-1.8-22-2.2-32.5-0.3-11.5-0.1-25.5 0.6-35.5 0.7-9.1 2.1-23 3.2-31 1.1-8 3.1-20.4 4.5-27.5 1.4-7.1 4.1-19.3 6-27 2-7.7 5.1-18.9 7.1-25 1.9-6.1 6.4-18.4 10-27.5 3.6-9.1 9.6-22.8 13.3-30.5 3.8-7.7 10.1-19.6 14-26.5 4-6.9 10.4-17.2 14.3-23 3.8-5.8 10.8-15.7 15.6-22 4.7-6.3 12.6-16.2 17.5-22 4.9-5.8 14.6-16.1 21.5-23.1 6.9-6.9 17.1-16.3 22.6-21 5.5-4.7 14.7-12.2 20.5-16.6 5.8-4.4 15.9-11.6 22.5-16 6.6-4.4 18.1-11.5 25.5-15.8 7.4-4.4 19.8-10.9 27.5-14.6 7.7-3.7 21.4-9.6 30.5-13.2 9.1-3.6 20.9-7.9 26.2-9.6 5.4-1.7 15.8-4.7 23-6.6 7.3-1.9 18.9-4.5 25.8-5.9 6.9-1.3 19.9-3.4 29-4.5 9.1-1.1 18.7-2.2 21.5-2.4 2.7-0.2 17.9-0.4 33.7-0.5zm-27.2 46.8c-6.9 0.5-18.1 1.6-25 2.5-6.9 0.9-17.2 2.6-23 3.7-5.8 1-15.9 3.3-22.5 4.9-6.6 1.7-16.3 4.4-21.5 6.1-5.2 1.6-16.3 5.7-24.5 9-8.3 3.4-20.4 8.8-27 12.1-6.6 3.3-16.7 8.7-22.5 12-5.8 3.3-17 10.4-25 15.8-8 5.4-18.8 13.2-24 17.4-5.2 4.1-14 11.7-19.4 16.8-5.5 5.1-16.3 16-23.9 24.2-7.7 8.3-17.2 19.1-21 24-3.9 4.9-11.2 15.3-16.3 23-5 7.7-12.9 20.5-17.5 28.5-4.6 8-11.1 20.6-14.5 28-3.4 7.4-8.4 19.6-11.2 27-2.8 7.4-6.9 20-9.2 28-2.2 8-5.4 21.3-7 29.5-1.6 8.3-3.7 21.5-4.7 29.5-1.3 11-1.7 21.8-1.7 45 0 22.9 0.4 34.2 1.7 45.5 1 8.3 2.7 20.4 3.9 27 1.1 6.6 3.8 19.2 6 28 2.2 8.8 5.5 20.3 7.3 25.5 1.9 5.2 5.4 14.5 8 20.5 2.6 6 7.9 17.8 11.9 26 4 8.3 10.5 20.6 14.5 27.5 4.1 6.9 11.2 18.1 15.9 25 4.7 6.9 11.9 16.8 16 22 4.2 5.2 16.6 18.5 27.7 29.6 11 11.1 24.5 23.7 30 28 5.5 4.4 15.9 12 23 17 7.1 5 18.4 12.3 25 16.3 6.6 4 19.2 10.8 28 15.1 8.8 4.3 22.4 10.4 30.2 13.4 7.9 3.1 19.4 7.1 25.5 9 6.2 1.9 16.9 4.8 23.8 6.5 6.9 1.7 19 4.2 27 5.5 8 1.4 20.1 3.1 27 3.8 7.2 0.7 23.9 1.3 39.5 1.3 19.6-0.1 30.9-0.5 41.5-1.8 8-1 20.6-2.9 28-4.3 7.4-1.4 18.2-3.6 24-5 5.8-1.4 16.4-4.5 23.5-6.9 7.1-2.3 18.4-6.4 25-9 6.6-2.6 19.2-8.1 28-12.4 8.8-4.2 23.4-12.4 32.5-18 9.1-5.7 23.2-15.4 31.5-21.6 8.2-6.2 20.6-16.4 27.5-22.8 6.9-6.3 16.3-15.7 21-20.8 4.7-5.1 11.4-12.7 14.9-16.8 3.5-4.2 9-11 12.1-15.1 3.1-4.1 9.5-13.1 14-20 4.6-6.9 12-19 16.5-27 4.4-8 10.7-20.4 13.9-27.5 3.2-7.1 8.3-19.3 11.2-27 2.9-7.7 7.1-20.1 9.2-27.5 2.2-7.4 5.1-19.1 6.6-26 1.4-6.9 3.6-19.9 4.8-29 2-14.4 2.3-20.9 2.3-51.5 0-22.9-0.5-38.6-1.3-45.5-0.7-5.8-2.2-15.9-3.3-22.5-1.1-6.6-3.7-19.2-5.9-28-2.2-8.8-6.2-22.7-9-31-2.8-8.2-7.6-20.9-10.6-28-3.1-7.1-8-17.7-11.1-23.5-3-5.8-8.3-15.2-11.8-21-3.5-5.8-9.6-15.2-13.7-21-4-5.8-10.9-15-15.3-20.5-4.4-5.5-14.5-16.7-22.5-24.9-8-8.2-20.1-19.8-27-25.9-6.9-6-20.4-16.9-30-24.1-9.6-7.2-22.2-15.9-28-19.4-5.8-3.4-17.7-9.8-26.5-14.1-8.8-4.4-22.3-10.4-30-13.4-7.7-3-19.2-7.2-25.5-9.2-6.3-2-16.7-5-23-6.6-6.3-1.6-17.8-4-25.5-5.4-7.7-1.4-20.3-3.2-28-4-7.7-0.8-23.9-1.7-36-1.9-12.1-0.3-27.6-0.1-34.5 0.4zm116.5 128.6c4.4 0.3 11.4 1.2 15.5 2 4.1 0.9 11.1 3 15.5 4.8 4.4 1.7 11.1 5.2 15 7.8 3.9 2.5 10.1 7.7 14 11.5 3.9 3.7 9.1 10 11.7 13.8 2.6 3.9 5.8 9.6 7.2 12.8 1.4 3.1 3.7 9.6 5.1 14.5 1.6 5.3 2.8 12.5 3.1 18.7 0.4 6.9 0.1 13-1 19.8-0.9 5.3-3 13.4-4.6 18-1.7 4.5-4.8 11.1-6.9 14.7-2.1 3.6-6.1 9.2-8.7 12.5-2.7 3.2-8.5 8.8-12.9 12.3-4.4 3.5-12 8.3-17 10.7-5 2.4-12.6 5.4-17 6.7-6.9 2-10.2 2.3-24 2.2-14.5 0-16.8-0.3-25-2.8-5-1.5-12.6-4.6-17-6.9-4.4-2.3-10.5-6.2-13.5-8.6-3-2.4-6-4.8-6.5-5.2-0.6-0.4-11 6-24.2 14.9-12.8 8.6-33.9 22.9-46.9 31.7-13 8.8-24.2 16.4-25 17-1.2 0.8-1.1 1.8 0.1 6.5 0.8 3 1.9 9.6 2.4 14.5 0.7 5.7 0.7 12.2 0.1 17.5-0.4 4.7-1.3 10.5-1.9 13-0.5 2.5-1.7 6.5-2.6 9-0.8 2.5-1.4 4.5-1.2 4.6 0.1 0 9.2 5.8 20.2 12.9 11 7.1 33.2 21.3 78.5 50.5l3.7-3.3c2.1-1.8 5.8-4.7 8.3-6.4 2.5-1.7 8.3-4.9 13-7.2 4.7-2.2 12.1-5 16.5-6.2 6.2-1.7 11-2.2 21.5-2.2 10.8-0.1 15.3 0.4 22.5 2.2 5 1.2 12.1 3.7 16 5.5 3.9 1.8 9.9 5.2 13.5 7.6 3.6 2.5 9.4 7.2 12.9 10.5 3.5 3.3 8.7 9.6 11.6 14 2.8 4.4 6.3 10.7 7.8 14 1.4 3.3 3.5 9.4 4.6 13.5 1 4.1 2.2 11.1 2.6 15.5 0.4 4.9 0.2 11.7-0.5 17.5-0.7 5.2-2.1 12.4-3.2 16-1.1 3.6-3.4 9.2-5 12.5-1.7 3.3-4.7 8.5-6.7 11.5-2 3-6.3 8.3-9.6 11.8-3.3 3.6-8.9 8.6-12.5 11.2-3.6 2.7-10.3 6.7-15 8.9-4.7 2.2-12.1 5.1-16.5 6.2-6.4 1.8-10.9 2.2-22.5 2.3-12.2 0.1-15.8-0.3-23-2.2-4.7-1.3-11.9-3.9-16-5.8-4.1-2-10.2-5.5-13.5-7.9-3.3-2.3-9.2-7.6-13.1-11.6-3.9-4.1-8.6-9.6-10.4-12.4-1.9-2.7-4.8-8.1-6.6-12-1.7-3.9-4.2-11-5.5-16-1.7-6.9-2.2-11.8-2.2-21-0.1-6.6 0.4-14.5 1-17.5 0.6-3 1.4-6.6 1.8-8 0.6-2.4-0.7-3.4-23.2-18.1-13.1-8.6-35.8-23.3-77.3-49.9l-4.8 3.6c-2.6 2-7.4 5.1-10.7 7-3.3 1.8-10.1 4.6-15 6.3-5 1.6-13.1 3.5-18 4.2-5 0.6-12.8 0.9-17.5 0.6-4.7-0.4-11.9-1.5-16-2.6-4.1-1-10.9-3.3-15-5.1-4.1-1.7-10.6-5.3-14.5-7.8-3.8-2.6-9.8-7.6-13.3-11.2-3.5-3.6-8.4-9.4-10.7-13-2.4-3.6-5.6-9.2-7.1-12.5-1.5-3.3-3.8-9.8-5.2-14.5-1.7-6.2-2.5-12.1-2.9-22-0.4-10.5-0.2-15.4 1.1-22 1-4.7 3.1-11.9 4.6-16 1.6-4.1 4.8-10.4 7.1-14 2.3-3.6 6.2-8.9 8.8-11.9 2.5-3 8-8.2 12.1-11.5 4.1-3.2 12-8.1 17.5-10.7 5.5-2.6 12.7-5.5 16-6.4 3.6-1 11.7-1.9 20-2.2 8.7-0.3 16.3-0.1 20 0.6 3.3 0.7 8.9 2.1 12.5 3.3 3.6 1.1 9.2 3.4 12.5 5.1 3.3 1.6 8.6 4.8 11.9 7.1 3.2 2.2 6.6 4.7 7.5 5.4 1.4 1.1 3.2 0.2 13.1-6.6 6.3-4.3 28.5-19.3 49.3-33.3 35.5-23.8 37.8-25.6 37.2-27.9-0.3-1.4-1.3-6.8-2.1-12-1.1-6.5-1.4-12.5-1-19 0.3-5.2 1.5-13.1 2.6-17.5 1.1-4.4 3.5-11.1 5.3-15 1.8-3.9 5.3-9.9 7.7-13.5 2.4-3.6 7.1-9.2 10.4-12.6 3.4-3.3 9-8 12.6-10.4 3.6-2.4 10.1-6.1 14.5-8.1 4.4-2.1 10.9-4.5 14.5-5.4 3.6-0.9 9.4-2.1 13-2.5 3.6-0.5 10.1-0.6 14.5-0.4z"/></svg>