<svg version="1.2" xmlns="http://www.w3.org/2000/svg" viewBox="0 0 1024 1024" width="1024" height="1024"><style>.a{fill:#030303}</style><path fill-rule="evenodd" class="a" d="m512 122.2c12.4-0.1 27.7 0.3 34 0.9 6.3 0.5 17.8 1.9 25.5 3 7.7 1.1 19.2 3.1 25.5 4.5 6.3 1.4 18.5 4.6 27 7.1 8.5 2.4 22.9 7.4 32 11 9.1 3.6 23.9 10.3 33 14.8 9.1 4.6 22.4 12 29.5 16.5 7.1 4.5 17.3 11.2 22.5 14.9 5.2 3.8 14.7 11 21 16.1 6.3 5.2 18.9 16.8 28 25.9 9.1 9.1 20.9 22 26.1 28.6 5.3 6.6 13.9 18.3 19.1 26 5.2 7.7 12 18.3 15.1 23.5 3 5.2 8.2 14.9 11.5 21.5 3.3 6.6 7.8 16.1 10 21 2.2 4.9 6 14.7 8.6 21.7 2.5 7.1 6.4 19.2 8.6 27 2.2 7.9 5.4 21 7 29.3 1.5 8.2 3.6 20.6 4.4 27.5 0.9 6.9 2 20.4 2.6 30 0.8 12.4 0.8 23.3 0 37.5-0.6 11-1.7 25.2-2.6 31.5-0.8 6.3-2.4 16.5-3.5 22.5-1.1 6-3.4 16.6-5.1 23.5-1.7 6.9-4.8 18.1-7 25-2.2 6.9-6.3 18.1-9 25-2.7 6.9-8.1 18.8-11.9 26.5-3.7 7.7-9.9 19.2-13.7 25.5-3.7 6.3-9.7 15.8-13.2 21-3.5 5.2-9.3 13.3-12.9 18-3.5 4.7-10.3 13-15 18.5-4.7 5.5-11.7 13.3-15.6 17.4-3.9 4.1-12.6 12.3-19.5 18.4-6.9 6.1-18.8 15.7-26.5 21.5-7.7 5.7-19.6 13.9-26.5 18.2-6.9 4.2-18.1 10.7-25 14.3-6.9 3.6-18.1 9-25 12-6.9 3-18.2 7.5-25.3 10.1-7 2.5-18.4 6.2-25.5 8.2-7 2-17.4 4.6-23.2 5.9-5.8 1.3-16.4 3.2-23.5 4.4-7.1 1.1-18.4 2.5-25 3-6.6 0.6-17.9 1.3-25 1.6-7.1 0.4-20.9 0.2-30.5-0.4-9.6-0.6-23.1-1.8-30-2.6-6.9-0.9-20.1-3.1-29.5-5-9.4-1.9-23.2-5.3-30.8-7.5-7.5-2.2-18.8-5.9-25-8.1-6.1-2.3-17.7-7-25.7-10.5-8-3.5-21.5-10.2-30-15-8.5-4.7-21.8-12.8-29.5-17.9-7.7-5.2-18.3-12.8-23.5-17-5.2-4.2-14-11.5-19.4-16.3-5.4-4.8-14.4-13.4-19.9-19.2-5.4-5.8-14.4-15.9-19.9-22.5-5.4-6.6-13.7-17.4-18.3-24-4.6-6.6-11.8-17.6-15.9-24.5-4.1-6.9-10.7-19-14.7-27-3.9-8-9.4-20.1-12.2-27-2.7-6.9-6.6-17.7-8.7-24-2.1-6.3-5.6-18.7-7.8-27.5-2.2-8.8-5.2-23.2-6.6-32-1.4-8.8-3-21.2-3.6-27.5-0.5-6.3-1-22.6-1-36.3 0-15.3 0.6-30.3 1.6-39.5 0.8-8.1 2.6-20.8 4-28.2 1.4-7.4 3.9-18.9 5.5-25.5 1.7-6.6 4.9-17.6 7.1-24.5 2.2-6.9 6.2-18 8.9-24.8 2.7-6.7 7.5-17.7 10.7-24.5 3.3-6.7 9.4-18.3 13.7-25.7 4.3-7.4 11.7-19.4 16.6-26.5 4.8-7.1 12.5-17.7 17.2-23.5 4.6-5.8 12.9-15.4 18.3-21.5 5.4-6 16.2-16.5 23.9-23.4 7.7-6.8 20.3-17.1 28-22.9 7.7-5.7 19.6-13.9 26.5-18.2 6.9-4.2 18.1-10.7 25-14.3 6.9-3.6 18.1-9 25-12 6.9-3 18.8-7.7 26.5-10.5 7.7-2.8 20.7-6.9 29-9.1 8.2-2.3 21.7-5.4 30-7.1 8.2-1.6 21.1-3.6 28.5-4.4 7.4-0.9 15.5-1.7 18-1.9 2.5-0.2 14.6-0.4 27-0.5zm-25.5 48.5c-2.2 0.2-9.6 1-16.5 1.9-6.9 0.8-18.1 2.7-25 4.1-6.9 1.3-19.3 4.4-27.5 6.8-8.3 2.3-21.5 6.9-29.5 10-8 3.2-21 9-29 13-8 4-19.2 10.2-25 13.7-5.8 3.5-15.2 9.7-21 13.8-5.8 4.1-15.7 11.8-22 17.1-6.3 5.3-17.1 15.5-24 22.5-6.9 7.1-16.5 17.9-21.3 23.9-4.9 6.1-12.3 16.2-16.6 22.5-4.3 6.3-10.2 15.6-13.1 20.5-2.9 4.9-7.6 13.7-10.5 19.5-2.9 5.8-7.1 14.8-9.3 20-2.2 5.2-6.1 15.6-8.7 23-2.5 7.4-6.1 19.6-8 27-1.9 7.4-4.5 20.2-5.9 28.5-1.3 8.2-3 22.2-3.7 31-0.7 9.6-0.9 23-0.6 33.5 0.4 9.6 1.3 23.4 2.2 30.5 0.8 7.1 2.4 17.7 3.6 23.5 1.1 5.8 3.1 14.8 4.4 20 1.3 5.2 4.1 14.5 6.1 20.5 2 6 5.3 15.3 7.4 20.5 2.1 5.2 5.7 13.5 8 18.5 2.3 5 6.7 13.5 9.7 19 3.1 5.5 9.7 16.3 14.8 24 5.1 7.7 13 18.7 17.6 24.5 4.6 5.8 12.4 15 17.4 20.4 4.9 5.5 14.4 14.9 21 20.9 6.6 6 17.9 15.3 25 20.7 7.1 5.4 18.2 13 24.5 17 6.3 4 19.6 11.2 29.5 16 9.9 4.9 24.3 11.2 32 14 7.7 2.9 19.6 6.7 26.5 8.6 6.9 1.9 18.1 4.6 25 5.9 6.9 1.4 17.7 3.2 24 4.1 6.9 0.9 22.2 1.8 38 2.1 20.6 0.4 30 0.1 42-1.2 8.5-0.9 21.4-2.7 28.5-4 7.1-1.3 19.7-4.3 28-6.5 8.2-2.3 21.5-6.6 29.5-9.7 8-3 21.5-9 30-13.2 8.5-4.2 21.8-11.7 29.5-16.5 7.7-4.8 18.5-12.2 24-16.4 5.5-4.1 14.5-11.4 20-16.2 5.5-4.8 15-13.9 21-20.1 6-6.3 15-16.4 19.8-22.4 4.9-6.1 11.9-15.5 15.6-21 3.8-5.5 9.4-14.3 12.6-19.5 3.2-5.2 8.8-15.6 12.5-23 3.8-7.4 9.1-19.1 11.8-26 2.8-6.9 6.4-16.8 8.1-22 1.7-5.2 4.2-13.8 5.5-19 1.4-5.2 3.4-14.2 4.5-20 1.1-5.8 2.8-15.7 3.6-22 0.9-6.3 1.8-21.2 2.2-33 0.4-13.5 0.1-27.1-0.6-36.5-0.7-8.3-2.3-21.5-3.7-29.5-1.3-8-3.8-19.9-5.4-26.5-1.6-6.6-5.2-18.5-7.9-26.5-2.7-8-7.2-19.9-10.1-26.5-2.8-6.6-7.6-16.7-10.7-22.5-3-5.8-8.9-15.9-13.1-22.5-4.1-6.6-10.6-16.3-14.5-21.5-3.9-5.2-10.4-13.6-14.5-18.5-4.2-4.9-13.5-14.9-20.6-22-7.2-7.1-18.8-17.5-25.6-23-6.9-5.5-17.9-13.7-24.5-18.1-6.6-4.5-16.7-10.8-22.5-14.1-5.8-3.3-13.6-7.6-17.5-9.6-3.9-1.9-12-5.6-18-8.2-6-2.6-16.9-6.7-24-9.1-7.1-2.5-18.2-5.8-24.5-7.4-6.3-1.6-16.2-3.8-22-4.9-5.8-1.1-17.1-2.7-25.3-3.5-9.4-1-22.7-1.5-37-1.4-12.2 0.1-24 0.3-26.2 0.5zm25.5 104.4c6.7 0 12 0.5 14.5 1.5 2.2 0.8 4.8 2.2 5.9 3.2 1 0.9 2.7 3.4 3.7 5.4 1.8 3.7 1.9 7.6 1.9 200.8h196.5l4.5 2.8c3 1.8 5.3 4.3 6.7 7.2 2 3.9 2.3 6.1 2.3 16 0 9.9-0.3 12.1-2.3 15.9-1.3 2.6-3.8 5.5-10.1 9.6l-197.6 0.5v97.7c0 92.2-0.1 98-1.9 101.8-0.9 2.2-3.2 5.2-4.9 6.7-1.8 1.6-4.7 3.1-6.5 3.4-1.7 0.3-8.6 0.4-15.3 0.2-11.2-0.3-12.3-0.5-15.5-2.9-1.9-1.4-4.3-4.3-5.4-6.5-2-3.8-2-6.1-2.5-200.4l-97.3-0.1c-71.7 0-98.1-0.4-100.4-1.2-1.8-0.7-4.7-2.6-6.5-4.2-1.7-1.6-3.7-4.5-4.5-6.3-0.8-2-1.3-7.3-1.3-14.5 0-9.6 0.4-11.8 2.3-15.7 1.4-2.9 3.7-5.4 11.2-10h196.5v-97.5c0-86 0.2-97.9 1.6-101.3 0.8-2 2.5-4.8 3.7-6.1 1.2-1.3 4-3.2 6.2-4.2 3.1-1.4 6.4-1.9 14.5-1.8z"/></svg>