<svg version="1.2" xmlns="http://www.w3.org/2000/svg" viewBox="0 0 1024 1024" width="1024" height="1024"><style>.a{fill:#010101}</style><path fill-rule="evenodd" class="a" d="m837 142l6.3 2.1c3.4 1.1 8.7 3.5 11.7 5.2 3 1.7 8.4 6.1 11.9 9.7 4 4.1 7.6 9 9.7 13.5 1.9 3.8 4.1 10.3 4.9 14.3 1.3 6.3 1.5 47.6 1 651.7l-2.8 6.5c-1.5 3.6-5.1 9.6-8 13.5-2.8 3.8-7.9 8.9-11.2 11.3-3.3 2.4-7.8 5.2-10 6.2-2.2 1-6.7 2.7-10 3.7-5.7 1.7-19.8 1.8-326 2-316.6 0.3-320.1 0.3-328.3-1.7-4.5-1.1-10.6-3.2-13.4-4.6-2.9-1.5-7.5-4.4-10.3-6.4-2.7-2.1-6.9-6.2-9.2-9.1-2.3-3-5.9-9-11.8-21.4l-0.2-324c-0.3-292.2-0.1-324.6 1.3-330 0.9-3.3 3.2-9.2 5.2-13 2.3-4.4 6.1-9.4 10.2-13.5 3.6-3.6 9.2-7.9 12.5-9.7 3.3-1.7 8.5-3.9 11.5-4.7 4.8-1.3 45.6-1.5 655-1.6zm-641.6 49c-1.2 0.5-2.9 1.9-3.8 3.2-1.5 2.1-1.6 15.6-1.6 147v144.8h297v-296c-224.4 0.1-290.5 0.5-291.6 1zm341.6 295h297v-291l-6-5h-291zm-347 342l5 5h292v-297h-297zm347 5h292.1l4.9-5v-292h-297z"/></svg>