<svg version="1.2" xmlns="http://www.w3.org/2000/svg" viewBox="0 0 1024 1024" width="1024" height="1024"><style>.a{fill:#1c2328}</style><path fill-rule="evenodd" class="a" d="m712.1 121.1c-1.8 1.2-4.1 3.1-5 4.3-0.9 1.1-2.8 5.2-4.3 9.1-1.4 3.8-6.6 17.4-11.5 30l-8.9 23c-7.7 3.7-21.6 9.4-35.9 15.1-14.3 5.7-27.4 11.2-29 12.1-1.7 0.9-3.5 2.2-4.1 2.7-0.6 0.6-1.8 2.6-2.7 4.4-1 1.7-1.7 4.7-1.7 6.5 0 1.7 1 4.8 2.3 6.7 1.2 1.9 3.6 4.4 5.2 5.5 1.7 1.1 16.5 7.4 33 14 16.5 6.5 30.7 12.6 31.5 13.5 0.8 0.8 6.2 13.6 11.9 28.5 5.7 14.9 11.4 29 12.7 31.5 1.3 2.5 3.6 5.2 5.2 6.2 1.5 0.9 4.3 1.9 6.2 2.3 2.6 0.6 4.7 0.2 8-1.3 2.5-1.2 5.2-3.4 6.1-4.9 0.9-1.5 6.7-16.3 12.9-32.8 6.2-16.5 11.6-30.3 11.9-30.7 0.3-0.4 15-6.4 32.6-13.2 30.2-11.8 32.2-12.7 35.8-16.8 3.1-3.6 3.8-5 3.7-8.5 0-2.4-0.7-5.6-1.5-7.3-0.8-1.7-3-4.1-4.8-5.4-1.7-1.3-14.5-6.9-28.2-12.4-13.8-5.5-27.7-11.2-31-12.5-3.3-1.4-6.5-3.4-7.1-4.4-0.7-1-6-14.4-11.9-29.8-5.9-15.4-11.9-29.5-13.4-31.4-1.4-1.9-4.1-4.1-5.9-4.8-1.7-0.7-4.4-1.3-6-1.3-1.5 0-4.2 1-6.1 2.1zm-60.1 262.2c-1.9 0.7-4.4 2.6-5.7 4.2-1.2 1.7-2.7 4.2-3.2 5.7-0.8 2-1.1 64.2-1.1 203.8 0 179.6 0.2 201.4 1.6 204.7 0.8 2.1 2.5 4.9 3.7 6.1 1.2 1.3 3.9 3.3 5.9 4.3 3.6 1.8 6.5 1.9 64.6 1.6l60.8-0.2c6.4-4.1 8.9-7 10.4-10.1l2.5-4.9c0.5-331.6 0.2-399.2-0.4-401.5-0.6-1.9-2.5-5.3-4.3-7.4-1.8-2.1-5-4.7-7.1-5.7-3.5-1.8-7.2-1.9-64-1.9-45.5 0.1-61 0.4-63.7 1.3zm-211 86.9c-2.6 1.4-5.7 4.1-7.5 6.6l-3 4.4c-0.5 304.6-0.4 314.6 1.2 318.8 0.9 2.5 2.9 5.8 4.3 7.4 1.4 1.6 4.2 3.7 6.2 4.7 3.6 1.8 7.3 1.9 62.5 1.9 32.4 0 60.4-0.3 62.3-0.7 2.2-0.4 5.2-2.4 8.1-5.2 3-2.9 5.1-6.1 5.8-8.6 0.8-2.8 1.1-49.8 1.1-158.8 0-137.5-0.2-155.1-1.6-158.5-0.8-2-2.9-5.2-4.7-7-1.8-1.9-4.9-4.2-7-5.3-3.5-1.8-6.6-1.9-63.5-1.9h-59.7zm-203.5 122.6c-2.2 1-5.3 3.2-6.9 4.7-1.6 1.6-4 5.2-5.2 7.9l-2.4 5v183.5c3.3 8.2 5.7 12.1 7.4 13.9 1.7 1.9 4.6 4 6.3 4.8 2.7 1.1 14.4 1.3 62.5 1.3l59.3 0.1c7.6-3.9 9.9-6.1 12-9.5l3-4.9c0.5-177.7 0.3-191.7-0.9-195.2-0.8-2.2-3-5.5-4.8-7.3-1.8-1.9-4.8-4-6.6-4.8-2.6-1.1-14.1-1.4-61.5-1.3-54.3 0-58.5 0.1-62.2 1.8zm-58.5 267.9q-5.5 2.7-8.5 7.1c-2.3 3.3-3.1 5.7-3.4 10-0.2 3.1 0.1 7.2 0.7 9.1 0.6 2 2.8 5.2 4.9 7.2 2.1 2 5.8 4.3 8.3 5.2 4.1 1.6 29.6 1.7 330 1.4l325.5-0.3c7-4 10.2-7 11.7-9.1 1.4-2.1 3.1-5.7 3.7-7.9 0.9-3.1 0.7-5.1-0.5-9.5-1.2-3.9-2.8-6.6-5.8-9.5-2.2-2.2-5.9-4.5-8.1-5.2-3.1-1-75.1-1.2-328.5-1.2h-324.5z"/></svg>