<svg version="1.2" xmlns="http://www.w3.org/2000/svg" viewBox="0 0 1024 1024" width="1024" height="1024"><style>.a{fill:#1a2127}</style><path fill-rule="evenodd" class="a" d="m519 144.5c19.3 0.2 33.5 0.9 41 1.9 6.3 0.9 18.5 3 27 4.7 8.5 1.7 22.4 5 30.8 7.5 8.3 2.4 21.6 6.9 29.4 10 7.9 3 20.1 8.4 27.3 11.9 7.2 3.5 18.9 9.9 26 14.2 7.2 4.3 18 11.3 24 15.5 6.1 4.2 15.7 11.5 21.5 16.1 5.8 4.6 15.9 13.6 22.4 19.8 6.6 6.3 15.8 15.7 20.4 20.9 4.7 5.2 12.9 15.4 18.3 22.5 5.3 7.1 13.6 19.3 18.4 27 4.7 7.7 11.7 20.1 15.5 27.5 3.7 7.4 8.9 18.7 11.5 25 2.6 6.3 6.2 15.8 8.1 21 1.8 5.2 4.6 14.2 6.3 20 1.6 5.8 4.1 15.9 5.6 22.5 1.5 6.6 3.5 17.9 4.6 25 1 7.1 2.4 19.8 3 28 0.7 8.9 0.9 23.7 0.6 36.5-0.3 11.8-1.3 26.9-2.1 33.5-0.9 6.6-2.5 17.2-3.6 23.5-1.2 6.3-3.7 17.8-5.6 25.5-2 7.7-5.1 18.7-7.1 24.5-1.9 5.8-5.3 15.2-7.6 21-2.2 5.8-8 18.1-12.7 27.5-4.7 9.4-11.7 22-15.5 28-3.8 6-9.6 14.8-12.9 19.5-3.3 4.7-10.4 13.9-15.7 20.5-5.3 6.6-15.4 17.9-22.5 25.1-7.1 7.2-17.4 16.9-22.9 21.5-5.5 4.7-13.6 11.2-18 14.6-4.4 3.3-12 8.7-17 12-5 3.3-12.8 8.3-17.5 11.1-4.7 2.7-14.8 8.1-22.5 12-7.7 3.8-20.3 9.5-28 12.5-7.7 3.1-19.4 7.2-26 9.2-6.6 2-17.4 4.9-24 6.5-6.6 1.6-16.3 3.6-21.5 4.5-5.2 0.9-14.5 2.3-20.5 3.1-6 0.8-21.8 1.7-35 2.1-15.3 0.4-30 0.1-40.5-0.6-9.1-0.7-23-2.3-31-3.7-8-1.3-21-4-29-6-8-2-21.5-6-30-9-8.5-2.9-22-8.2-30-11.7-8-3.5-20.1-9.5-27-13.2-6.9-3.7-19.5-11.4-28-17.1-8.5-5.6-20.5-14.2-26.5-19.1-6-4.8-17.5-15.1-25.4-22.8-7.9-7.7-18.9-19.4-24.5-26.1-5.5-6.7-13.8-17.2-18.3-23.5-4.5-6.3-11.8-17.5-16.3-24.9-4.5-7.4-11.4-20.3-15.5-28.5-4-8.2-9.8-21.5-12.8-29.5-3.1-8-7.1-19.9-9-26.5-1.9-6.6-4.7-17.2-6.1-23.5-1.4-6.3-3.7-18.7-5.1-27.5-1.4-8.8-3-25.5-3.6-37-0.9-15.8-0.9-25.6 0-39.5 0.6-10.2 2-24.6 3.1-32 1-7.4 3.1-19.1 4.5-26 1.5-6.9 4.6-19 7-27 2.4-8 6.3-19.7 8.8-26 2.4-6.3 6.6-16.2 9.2-22 2.7-5.8 7.5-15.4 10.8-21.5 3.3-6.1 9-15.7 12.6-21.5 3.6-5.8 10.8-16.1 16-23 5.1-6.9 13.9-17.6 19.5-23.9 5.5-6.3 14.8-15.8 20.6-21.2 5.8-5.3 13.9-12.6 18.2-16.1 4.2-3.4 12.9-10.2 19.5-15 6.5-4.7 17.9-12.5 25.3-17.3 7.4-4.7 19.8-11.7 27.5-15.5 7.7-3.8 18.6-8.7 24.3-10.9 5.6-2.3 15-5.7 20.9-7.6 6-2 17.6-5.4 25.8-7.5 8.3-2.2 21.5-5.1 29.5-6.5 8-1.4 20.8-3.2 28.5-3.9 10-1.1 22.4-1.4 43.5-1.1zm-40.1 50.8c-4.2 0.6-12.5 1.7-18.5 2.4-6 0.8-18.3 3.2-27.4 5.5-9.1 2.2-21.7 5.8-28 8-6.3 2.3-17.1 6.5-24 9.5-6.9 3-16.3 7.5-21 10.1-4.7 2.5-12.5 7-17.5 10.1-5 3-13 8.4-18 11.9-5 3.5-12.1 9-15.9 12.1-3.8 3.1-11 9.3-16 13.9-5 4.5-13.1 12.6-18 18-4.8 5.3-13.2 15.6-18.6 22.7-5.4 7.1-12.9 18.2-16.8 24.5-3.8 6.3-9.8 17.1-13.2 24-3.5 6.9-8.7 18.6-11.7 26-3 7.4-7.2 19.4-9.3 26.5-2.1 7.1-4.9 18.6-6.4 25.5-1.4 6.9-3.2 18.1-4.1 25-0.9 6.9-1.9 21.5-2.2 32.5-0.3 11.8-0.1 25.4 0.6 33 0.6 7.1 1.8 17.7 2.7 23.5 0.8 5.8 2.6 15.2 3.9 21 1.3 5.8 4 15.9 6 22.5 2 6.6 5.2 16.3 7.2 21.5 1.9 5.2 6.8 16.3 10.7 24.5 4 8.3 10.2 20 13.8 26 3.6 6 9.9 15.7 14 21.5 4 5.8 10.7 14.5 14.8 19.5 4.1 5 12 13.7 17.5 19.4 5.5 5.7 15.2 14.7 21.5 20 6.3 5.3 16 12.8 21.5 16.7 5.5 3.9 14.5 9.8 20 13.1 5.5 3.3 14.7 8.4 20.5 11.3 5.8 2.9 15.9 7.5 22.5 10.2 6.6 2.7 17.4 6.6 24 8.8 6.6 2.1 16.7 5 22.5 6.5 5.8 1.5 16.8 3.7 24.5 5 7.7 1.3 20.5 2.9 28.5 3.6 8.8 0.7 21.7 1 33 0.6 10.2-0.3 23.9-1.3 30.5-2.1 6.6-0.9 17.8-2.7 25-4.2 7.2-1.4 19.5-4.5 27.5-6.9 8-2.4 20.8-6.9 28.5-10 7.7-3.1 19.8-8.7 27-12.4 7.2-3.7 16.8-9.2 21.5-12.2 4.7-2.9 11.7-7.6 15.5-10.3 3.8-2.8 11.3-8.4 16.5-12.5 5.2-4.2 15.6-13.7 23-21.1 7.5-7.4 17.2-18 21.6-23.5 4.4-5.5 10.7-13.9 14.2-18.7 3.4-4.9 9.4-14.1 13.3-20.5 3.9-6.5 10.1-18.1 13.9-25.8 3.7-7.7 8.6-18.7 10.8-24.5 2.2-5.8 5.6-15.7 7.5-22 1.9-6.3 4.7-16.9 6.2-23.5 1.5-6.6 3.5-17.9 4.6-25 1.3-8.3 2.2-21.3 2.6-36 0.4-15 0.2-27.5-0.6-36-0.7-7.1-2.3-19.5-3.7-27.5-1.3-8-4-20.4-5.8-27.5-1.9-7.1-5.4-18.4-7.7-25-2.3-6.6-6.5-17.2-9.3-23.5-2.8-6.3-8.2-17.1-12-24-3.8-6.9-10.7-18.1-15.4-25-4.7-6.9-11.9-16.8-16.1-22-4.2-5.2-13.2-15.2-20.1-22.1-6.9-6.9-16.8-16.1-22-20.4-5.2-4.3-13.8-10.8-19-14.5-5.2-3.8-14.9-10.1-21.5-14-6.6-3.9-17.8-10-25-13.4-7.2-3.5-18.4-8.4-25-10.9-6.6-2.5-16.7-5.9-22.5-7.5-5.8-1.7-14.3-4-19-5-4.7-1.1-14.1-3-21-4.1-6.9-1.1-17.2-2.5-23-3.1-5.8-0.6-20.8-1-33.5-0.9-12.6 0.1-26.4 0.6-30.6 1.2zm34.9 102.2c2.3 0.3 5.5 1.2 7.2 2 1.7 0.8 4.1 3 5.4 4.8 1.3 1.7 4.4 8.8 6.9 15.7 2.5 6.9 10.5 28.5 17.7 48 7.2 19.5 15.2 41.1 17.8 47.9 2.6 6.8 5.2 12.5 5.7 12.7 0.5 0.2 24.4 1.2 53 2.4 28.6 1.2 58.5 2.5 66.5 2.8 13.1 0.7 14.9 1 18.5 3.3 2.3 1.5 4.8 4.2 5.9 6.5 1 2.1 1.9 5.7 1.9 7.9 0 2.2-0.7 5.4-1.5 7-0.9 1.7-9.1 8.9-19.4 17-9.9 7.6-33.4 26-52.4 40.8-19 14.8-34.8 27.2-35.3 27.6-0.4 0.3 7.5 29 17.4 63.6 11.6 40.2 18.2 64.6 18.2 67.5 0 2.5-0.6 5.6-1.3 7-0.7 1.4-2.2 3.6-3.4 4.8-1.1 1.3-3.4 3.1-5.1 3.9-1.7 0.9-5.3 1.6-8 1.6-2.9 0-6.5-0.8-8.5-1.8-1.9-1-8.9-5.7-15.5-10.3-6.6-4.7-29.1-20.3-50-34.7-20.9-14.4-39.2-26.9-43.5-29.5l-22.8 15.7c-12.5 8.6-36.7 25.3-53.7 37.2-21.2 14.7-32.4 21.9-35.5 22.7-2.6 0.7-6 0.9-8 0.5-1.9-0.4-5.1-1.6-7-2.8-2-1.2-4.5-3.9-5.7-6.4-1.3-2.4-2.3-5.9-2.3-7.6 0-1.8 8.1-32 18-67 10-35.1 17.9-63.8 17.8-63.9-0.2 0-5.5-4.1-11.8-9-6.3-4.9-29.9-23.1-52.4-40.4-22.5-17.3-41.8-32.9-43-34.5-1.6-2.3-2.1-4.5-2.1-9.1 0-5.1 0.5-6.7 2.8-9.7 1.5-2 4.2-4.5 6-5.4 2.7-1.4 11.5-2 54.7-3.9 28.3-1.2 58.7-2.5 83.5-3.5l11.7-31.7c6.5-17.4 16.7-45 22.7-61.2 7.5-20.4 11.8-30.5 13.7-32.8 1.6-1.8 4.7-4 6.9-4.8 2.3-0.8 5.8-1.2 8.3-0.9z"/></svg>