<svg version="1.2" xmlns="http://www.w3.org/2000/svg" viewBox="0 0 1024 1024" width="1024" height="1024"><style>.a{fill:#010101}</style><path fill-rule="evenodd" class="a" d="m511.2 198c280.3 0 303.1 0.1 306.6 1.7 2 0.9 4.8 2.6 6 3.7 1.3 1.2 3 3.7 3.8 5.6 1.1 2.7 1.5 8.7 1.5 48.5l-3.2 4.5c-1.7 2.5-3.8 5.2-4.7 6-1 0.8-8.2 8.5-16.2 17-8 8.5-22.6 24.2-32.5 34.9-9.9 10.7-21.6 23.6-26 28.6-4.4 5-11.3 13-15.4 17.6-4.1 4.6-11.3 12.6-16 17.8-4.7 5.2-14.5 15.8-21.7 23.5-7.1 7.8-19.7 21.5-27.8 30.6-8.2 9.1-16.7 18.6-19 21.1-2.2 2.5-6.8 7.6-10.1 11.5-3.3 3.8-10 11.2-15 16.4-5 5.2-12.8 13.6-25.4 27.5l-0.1 103.8c0 101.7 0 103.8-2 107.7-1.1 2.2-3.2 4.8-4.8 5.7-1.5 1-7 4.9-12.3 8.8-5.3 3.8-13.6 9.9-18.5 13.5-4.9 3.6-13.2 9.6-18.4 13.3-5.2 3.8-10.6 7.7-12 8.7-1.4 1.1-9.8 7.2-18.6 13.7-8.9 6.5-21.7 15.8-28.5 20.8-6.7 5-14.3 10.4-16.8 12.1-2.5 1.7-6.6 3.6-9.1 4.1q-4.5 0.9-9.5-0.2c-2.8-0.7-6-1.7-7.3-2.3-1.2-0.7-3.3-2.7-4.6-4.5-1.3-1.7-3.1-4.8-4-6.7-1.5-3.2-1.6-15.5-1.6-299l-4.8-5.4c-2.6-2.9-11.2-12.5-19.1-21.2-7.9-8.7-16.9-18.6-20-21.9-3.1-3.3-12.6-13.6-21.1-23-8.4-9.4-20.6-22.6-27-29.5-6.4-6.9-15-16.2-19.1-20.8-4.1-4.5-10.1-11.3-13.4-15.1-3.3-3.7-16.8-18.4-30-32.6-13.2-14.2-27.4-29.5-31.5-34-4.1-4.5-10-10.9-13-14.2-3-3.3-10.9-11.8-17.6-18.9-6.6-7.1-13-14.4-14.2-16.2-2.1-3.1-2.2-4.2-2.2-25.7 0-13.8 0.4-23.6 1.1-25.3 0.6-1.5 2.5-4.3 4.3-6.2 1.8-1.9 3.9-3.6 4.7-3.8 0.8-0.2 1.8-0.8 2.4-1.3 0.5-0.5 118.7-0.9 303.7-0.9zm-271.2 46.4c0.3 0.3 3.4 3.7 7 7.7 3.6 4 12.4 13.6 19.5 21.4 7.1 7.8 18.4 20.2 25 27.5 6.6 7.4 15.1 16.8 19 20.9 3.9 4.2 16.7 18.4 28.5 31.5 11.8 13.1 26.4 29.3 32.4 36 6 6.6 17.7 19.5 26 28.6 8.3 9.1 18.7 20.3 23.1 25 4.4 4.7 12.5 13.5 18.1 19.5 5.5 6.1 15.1 16.5 21.2 23.2l11.2 12.3c-0.4 208.5-0.2 269 0.2 269 0.5 0 0.9-0.3 1-0.8 0.2-0.4 2.3-2.4 4.8-4.4 2.5-2.1 5.1-3.8 5.7-3.8 0.7 0 1.4-0.4 1.5-0.9 0.2-0.5 7.5-6.1 16.3-12.6 8.8-6.5 24.2-17.9 34.2-25.4l18.3-13.6-0.1-207c19.1-21 28.9-31.8 34.2-37.6 5.3-5.7 15-16.3 21.5-23.4 6.6-7.2 19.1-21.1 27.9-31 8.8-9.8 22.7-25.2 31-34.2 8.2-9 20.2-22.1 26.5-29.2 6.3-7.1 17.7-19.8 25.4-28.3 7.6-8.4 18.6-20.7 24.5-27.3 5.8-6.6 15.1-16.7 20.6-22.5 5.5-5.8 12.2-12.9 15-15.8l5-5.2c-422.4 0-544.8 0.1-544.5 0.4z"/></svg>