<svg version="1.2" xmlns="http://www.w3.org/2000/svg" viewBox="0 0 1024 1024" width="1024" height="1024"><style>.a{fill:#010101}</style><path fill-rule="evenodd" class="a" d="m518 141.5c12.4 0.2 28.6 1.1 36 2 7.4 0.9 19.6 2.7 27 4.1 7.4 1.4 19.4 4 26.5 5.9 7.1 1.9 18.2 5.2 24.5 7.3 6.3 2.2 15.3 5.4 20 7.3 4.7 1.8 15.9 7 25 11.5 9.1 4.5 21.2 11 27 14.5 5.8 3.5 15.5 9.9 21.5 14.1 6.1 4.2 16 11.7 22 16.5 6 4.8 18 15.7 26.6 24.3 8.5 8.5 19.4 20.2 24.1 26 4.7 5.8 11.4 14.6 15 19.5 3.6 4.9 9.9 14.4 14 21 4.1 6.6 10.2 17.2 13.6 23.5 3.3 6.3 8.5 17.1 11.5 24 3 6.9 8 19.9 11.1 29 3.1 9.1 7.2 22.8 9.1 30.5 1.9 7.7 4.6 20.5 5.9 28.5 1.4 8 3.1 19.7 3.8 26 0.7 6.5 1.3 22.4 1.2 36.5 0 17.4-0.5 29.4-1.8 39.5-0.9 8-3 21.3-4.6 29.5-1.7 8.3-4.9 22-7.4 30.5-2.4 8.5-6.7 21.8-9.6 29.5-2.9 7.7-8.4 20.8-12.4 29-4 8.3-10.1 20-13.5 26-3.5 6-10.3 16.9-15.2 24-4.8 7.1-12.7 17.9-17.6 24-4.8 6-14.7 17-21.8 24.4-7.1 7.3-17.7 17.5-23.5 22.6-5.8 5-15 12.5-20.5 16.7-5.5 4.1-14 10.2-19 13.5-5 3.3-13.5 8.6-19 11.8-5.5 3.3-17.2 9.4-26 13.6-8.8 4.2-22.3 10-30 12.9-7.7 2.9-21 7.2-29.5 9.6-8.5 2.5-21.4 5.5-28.5 6.9-7.1 1.3-18.3 3.1-24.8 4-6.4 0.8-19.5 2-28.9 2.6-9.5 0.6-22.7 0.8-29.3 0.4-6.6-0.3-16.7-1-22.5-1.6-5.8-0.5-17.5-2.1-26-3.5-8.5-1.4-22.5-4.3-31-6.5-8.5-2.1-21.4-5.8-28.5-8.3-7.1-2.4-17.9-6.5-24-9.1-6.1-2.6-17.5-8-25.5-12.1-8-4.1-20.6-11.3-28-16-7.4-4.7-18.4-12.3-24.5-16.9-6.1-4.5-16.6-13.2-23.5-19.2-6.9-6-17.3-16.1-23.2-22.4-5.9-6.3-15.1-16.8-20.4-23.4-5.3-6.6-13.8-18.3-18.9-26-5.1-7.7-12.1-19-15.6-25-3.4-6-8.7-16.2-11.7-22.5-3-6.3-7.6-16.9-10.2-23.5-2.6-6.6-6.7-17.9-9-25-2.3-7.1-5.7-19.3-7.6-27-1.9-7.7-4.5-21.2-5.9-30-1.4-8.8-3-22.8-3.6-31-0.7-8.6-0.9-22.4-0.5-32.5 0.3-9.6 1.2-23.4 2.1-30.5 0.8-7.1 2.4-18.2 3.5-24.5 1.2-6.3 3.2-16.2 4.6-22 1.3-5.8 4.3-16.4 6.5-23.5 2.3-7.1 6.6-19.3 9.6-27 3.1-7.7 8-19.2 11-25.5 3-6.3 8.6-16.9 12.5-23.5 3.9-6.6 9.8-16.1 13.1-21 3.3-4.9 10-14.2 14.8-20.5 4.8-6.3 13.6-16.9 19.6-23.5 6-6.6 15.8-16.5 21.9-22 6-5.6 15.6-13.9 21.4-18.4 5.8-4.6 15.7-11.9 22-16.1 6.3-4.2 15.6-10 20.5-13 4.9-2.9 14.2-7.8 20.5-11 6.3-3.2 16.4-7.9 22.5-10.5 6.1-2.6 18.9-7.3 28.5-10.5 9.6-3.2 24.7-7.4 33.5-9.4 8.8-1.9 22.5-4.5 30.5-5.6 8-1.1 19.4-2.5 25.5-3 6.1-0.5 21.1-0.7 33.5-0.5zm-35 73.6c-5.2 0.5-14.9 1.8-21.5 3-6.6 1.1-17.4 3.3-24 5-6.6 1.6-17.9 4.9-25 7.4-7.1 2.4-19.1 7.1-26.5 10.4-7.4 3.4-17.8 8.6-23 11.5-5.2 3-13.6 8.1-18.5 11.3-4.9 3.3-13.7 9.7-19.5 14.3-5.8 4.6-16.1 13.8-22.9 20.4-6.8 6.7-15.9 16.4-20.3 21.6-4.4 5.2-11.1 13.8-14.8 19-3.8 5.2-9.6 14.1-12.9 19.8-3.4 5.6-8.3 14.6-11 19.9-2.7 5.4-6.9 15-9.4 21.3-2.5 6.3-6.1 16.7-8.1 23-2 6.3-4.9 17.8-6.5 25.5-1.7 7.7-3.7 20.1-4.5 27.5-1 8.5-1.6 22.1-1.6 36.5 0 14.3 0.6 27.9 1.5 36 0.9 7.1 2.6 18.4 4 25 1.3 6.6 4 17.4 5.8 24 1.9 6.6 5.6 17.4 8.2 24 2.6 6.6 7.3 17.2 10.5 23.5 3.2 6.3 8.1 15.5 11.1 20.5 2.9 5 8.6 13.7 12.7 19.5 4.1 5.8 10.6 14.3 14.5 19 3.9 4.7 12.1 13.5 18.2 19.6 6 6.1 15.1 14.4 20 18.5 4.9 4.1 13.5 10.7 19 14.6 5.5 3.9 14.6 9.9 20.3 13.2 5.6 3.4 15 8.5 20.9 11.5 6 2.9 16 7.4 22.3 9.9 6.3 2.5 16.7 6.1 23 8 6.3 2 16.9 4.7 23.5 6 6.6 1.4 17.4 3.4 24 4.4 9.5 1.4 17.9 1.8 40 1.7 23.4 0 30.2-0.4 41.5-2.1 7.4-1.2 18.9-3.3 25.5-4.8 6.6-1.5 17.9-4.6 25-7 7.1-2.4 18.4-6.6 25-9.5 6.6-2.8 17.2-7.9 23.5-11.3 6.2-3.4 16.6-9.6 23-13.8 6.3-4.1 16.2-11.3 22-15.9 5.8-4.6 16.1-13.8 22.9-20.5 6.8-6.6 15.9-16.3 20.3-21.5 4.4-5.2 11.1-13.8 14.8-19 3.7-5.2 9.2-13.3 12.1-18 2.9-4.7 8.5-15 12.5-23 4-8 9.5-20.6 12.2-28 2.8-7.4 6.2-17.8 7.6-23 1.4-5.2 3.4-13.8 4.6-19 1.1-5.2 2.7-14.2 3.6-20 0.8-5.8 1.8-20.6 2.1-33 0.4-14.4 0.1-27.4-0.6-36-0.7-7.4-2.1-18.4-3.1-24.5-1-6.1-3.2-16.4-4.9-23-1.6-6.6-5-17.9-7.5-25-2.4-7.1-6.5-17.7-9.1-23.5-2.5-5.8-6.9-14.8-9.6-20-2.8-5.2-8.8-15.1-13.3-22-4.6-6.9-11.6-16.8-15.7-22-4-5.2-12.1-14.4-17.9-20.4-5.8-6-15.3-15-21.1-20-5.8-5-14.2-11.6-18.5-14.8-4.3-3.1-12.2-8.3-17.4-11.6-5.2-3.3-15.4-9-22.5-12.6-7.1-3.6-18.6-8.8-25.5-11.5-6.9-2.7-17.7-6.5-24-8.4-6.3-2-16.9-4.7-23.5-6.1-6.6-1.4-17.2-3.2-23.5-4.1-7.1-1-20.9-1.8-36-2-13.5-0.2-28.8 0.1-34 0.6zm-61 136.9c16.7 0 26.7 0.4 29 1.1 1.9 0.7 5.1 2.4 6.9 3.8 1.9 1.4 4.5 4.8 8.1 12.6l-0.5 287.3-3 4.4c-2 2.8-4.9 5.2-14 9.8h-25.8c-20.9 0-26.4-0.3-29.4-1.6-2.1-0.8-5.1-2.7-6.6-4.2-1.6-1.5-3.7-4.4-4.8-6.5-1.8-3.6-1.9-8-1.9-147.2 0-139.2 0.1-143.6 1.9-147.3 1.1-2 3.2-4.9 4.8-6.4 1.5-1.5 4.4-3.4 6.3-4.2 2.8-1.2 8.5-1.5 29-1.6zm204.5-0.1l5.5 2.9c4.1 2.1 6.3 4.1 11.5 12.5l0.3 142.1c0.2 111 0 143.1-1 146.6-0.8 2.9-2.7 6-5.3 8.5-2.2 2.2-5.8 4.6-8 5.3q-4 1.2-28.5 1.2-24.5 0-28.5-1.2c-2.3-0.7-5.8-3.1-8.3-5.5-2.4-2.5-4.6-5.9-5.2-8.1-0.6-2.4-1-54.4-1-144.7 0-107.6 0.3-141.9 1.2-145 0.7-2.2 3.1-5.8 5.3-8 2.2-2.2 5.6-4.6 7.5-5.2 2.1-0.7 13.4-1.1 54.5-1.4z"/></svg>