<svg version="1.2" xmlns="http://www.w3.org/2000/svg" viewBox="0 0 1024 1024" width="1024" height="1024"><style>.a{fill:#010101}</style><path fill-rule="evenodd" class="a" d="m517 141.6c12.4 0.2 27 0.8 32.5 1.4 5.5 0.6 17 2.2 25.5 3.6 8.5 1.4 22.7 4.4 31.5 6.6 8.8 2.2 20.5 5.6 26 7.5 5.5 1.9 15.4 5.7 22 8.5 6.6 2.8 18.1 8.1 25.5 11.8 7.4 3.8 18.2 9.7 24 13.2 5.8 3.4 15.5 9.8 21.5 14 6.1 4.2 15.7 11.5 21.5 16.1 5.8 4.6 16.3 14 23.4 20.8 7.1 6.8 17 17.1 21.9 22.9 5 5.8 13 15.7 17.7 22 4.7 6.3 12.2 17.4 16.6 24.5 4.5 7.1 10.9 18.2 14.2 24.5 3.4 6.3 8.3 16.7 11 23 2.7 6.3 6.8 16.7 9.1 23 2.2 6.3 5.5 16.2 7.1 22 1.7 5.8 4.6 17.5 6.5 26 1.9 8.5 3.9 18.6 4.5 22.5 0.6 3.9 1.8 12.4 2.6 19 0.8 6.6 1.7 19.6 2.1 29 0.3 10 0.1 23.4-0.6 32.5-0.7 8.5-1.9 20.5-2.7 26.5-0.9 6-2.7 16.6-4.1 23.5-1.3 6.9-4.4 19.3-6.8 27.5-2.3 8.3-6.6 21.3-9.5 29-2.8 7.7-9.1 22.1-14 32-4.8 9.9-12.5 24.1-17 31.5-4.5 7.4-11.6 18.2-15.8 24-4.2 5.8-12.2 15.9-17.7 22.5-5.5 6.5-15.2 17.1-21.5 23.5-6.3 6.4-17.2 16.3-24.1 22-6.9 5.8-17.5 13.9-23.5 18.2-6 4.2-15.4 10.5-20.9 13.9-5.5 3.5-16.7 9.8-25 14-8.2 4.1-21.1 9.9-28.5 12.9-7.4 2.9-17.3 6.6-22 8.2-4.7 1.6-16.1 4.9-25.5 7.3-9.4 2.4-22.6 5.3-29.5 6.4-6.9 1.2-18.6 2.8-26 3.6-7.4 0.8-19.8 1.7-27.5 2.1-7.9 0.3-20.8 0.1-29.5-0.5-8.5-0.7-21.8-2.1-29.5-3.2-7.7-1.1-19.6-3.2-26.5-4.6-6.9-1.3-19.2-4.4-27.5-6.8-8.2-2.3-22.2-7.1-31-10.6-8.8-3.5-23.4-10-32.5-14.5-10.1-5-23.4-12.8-34.5-20.2-9.9-6.6-24.1-16.9-31.5-22.8-7.4-6-20.3-17.6-28.5-25.9-8.3-8.2-19.9-21.1-25.9-28.5-5.9-7.4-14.2-18.7-18.5-25-4.3-6.3-10.2-15.5-13.1-20.5-2.9-5-8.8-16.2-13.3-25-4.4-8.8-9.9-20.7-12.2-26.5-2.4-5.8-6.1-15.9-8.3-22.5-2.1-6.6-5.8-19.2-8-28-2.3-8.8-5.3-23-6.6-31.5-1.4-8.5-3-20.9-3.6-27.5-0.5-6.6-1-19.2-1-28 0-8.8 0.5-21.2 1.1-27.5 0.5-6.3 1.9-17.6 3-25 1.1-7.4 3.5-20.5 5.4-29 1.9-8.5 5.3-21.4 7.6-28.5 2.2-7.1 6.5-19.1 9.4-26.5 2.9-7.4 8-19.1 11.2-26 3.3-6.9 8.5-17 11.8-22.5 3.2-5.5 9-14.7 12.8-20.5 3.9-5.8 11-15.7 15.8-22 4.8-6.3 13.6-16.9 19.6-23.5 6-6.6 15.4-16.2 20.9-21.4 5.4-5.1 14.6-13.2 20.4-17.8 5.8-4.6 15-11.5 20.5-15.2 5.5-3.8 13.1-8.8 17-11.1 3.9-2.3 12.2-7.1 18.5-10.5 6.3-3.4 18-9.1 26-12.7 8-3.6 19.7-8.4 26-10.6 6.3-2.2 19.6-6 29.5-8.6 9.9-2.5 24.5-5.7 32.5-7 8-1.3 19.7-2.9 26-3.5 6.3-0.6 13.3-1.3 15.5-1.5 2.2-0.2 14.1-0.2 26.5 0zm-38.5 74c-7.1 0.8-19.5 2.8-27.5 4.4-8 1.6-19.9 4.5-26.5 6.5-6.6 2-16.3 5.2-21.5 7.1-5.2 2-17.1 7.3-26.5 11.9-9.4 4.6-22.4 11.9-29 16.3-6.6 4.3-16.3 11.2-21.5 15.2-5.2 4-17.2 15-26.5 24.4-10 10-20.7 21.9-25.7 28.6-4.8 6.3-12.1 16.9-16.3 23.5-4.2 6.6-10.7 18.3-14.5 26-3.8 7.7-9.1 20.1-11.9 27.5-2.7 7.4-6.6 19.6-8.5 27-1.9 7.4-4.4 18.7-5.5 25-1.1 6.3-2.5 17.1-3.1 24-0.8 7.8-1 22-0.7 38 0.3 16.4 1.1 29.2 2.2 36 0.9 5.8 2.7 15.7 4.1 22 1.4 6.3 5 18.9 8 28 3.1 9.1 8 21.9 11 28.5 3 6.6 8 16.5 11.1 22 3.1 5.5 8.7 14.5 12.4 20 3.7 5.5 10.6 14.8 15.3 20.8 4.7 5.9 13.4 15.7 19.4 21.8 5.9 6.1 14.8 14.6 19.7 18.9 4.9 4.2 14.2 11.5 20.5 16.1 6.3 4.6 16.9 11.7 23.5 15.6 6.6 4 17.6 9.9 24.5 13.1 6.9 3.3 18.4 8.1 25.5 10.7 7.1 2.6 19.8 6.4 28 8.5 8.3 2.1 21.3 4.8 29 6.1 10.4 1.6 20 2.3 37.5 2.7 14.8 0.3 28 0 35.5-0.8 6.6-0.6 17-2.1 23-3.1 6-1.1 16.9-3.5 24-5.4 7.1-1.8 17-4.8 22-6.5 5-1.8 13.7-5.2 19.5-7.6 5.8-2.4 16.4-7.6 23.5-11.5 7.1-3.8 18.6-10.8 25.5-15.4 6.9-4.6 18.1-13 25-18.8 6.9-5.7 17.5-15.6 23.5-21.8 6-6.3 14.8-16.1 19.4-21.9 4.7-5.8 12.5-16.6 17.4-24 4.9-7.4 12.9-21.6 17.7-31.5 4.9-9.9 10.7-23.2 12.9-29.5 2.2-6.3 5.2-15.5 6.6-20.5 1.4-5 3.7-14.4 5-21 1.3-6.6 3-16 3.7-21 0.8-5.9 1.3-19.5 1.3-39-0.1-25.5-0.4-32-2.2-43.5-1.2-7.4-3.3-18.9-4.8-25.5-1.5-6.6-4.6-17.9-7-25-2.3-7.1-6.6-18.4-9.4-25-2.9-6.6-7.7-16.7-10.7-22.5-3.1-5.8-9-15.7-13.1-22-4.2-6.3-11-16-15.2-21.5-4.2-5.5-14.6-17-23.1-25.6-8.5-8.6-19.8-19-25-23.1-5.2-4.2-14.2-10.7-20-14.5-5.8-3.9-15-9.6-20.5-12.6-5.5-3.1-15-7.8-21-10.5-6-2.7-15.5-6.6-21-8.7-5.5-2-15.2-5.2-21.5-7-6.3-1.8-16.2-4.2-22-5.4-5.8-1.1-15.5-2.8-21.5-3.7-6.6-0.9-21.1-1.7-36-1.9-17.9-0.3-28.7 0-38 1.1zm-84.1 137.4c3 0 7 0.9 9.6 2.1 3.4 1.6 17.5 15.1 107.9 105.4l52.3-52.3c39.4-39.3 53.3-52.6 56.3-53.8 2.8-1.1 6.2-1.4 11-1.2q7 0.4 12 2.8c2.8 1.4 8.8 6.1 13.5 10.6 5.8 5.6 9.4 10 11.4 14 2.2 4.4 3 7.4 3 11.9 0.1 4.7-0.5 7.3-2.9 12-2.3 4.6-7.9 11.1-24.6 28.5-11.8 12.4-34.1 34.8-49.5 49.8-15.3 15.1-28.2 27.9-28.6 28.5-0.5 0.8 18.1 20.3 48.5 51 27.1 27.5 50.4 51.8 52 54 1.5 2.3 3 6.2 3.3 8.7 0.4 2.5 0.4 6.7 0 9.5-0.4 2.7-2.1 7.7-3.9 10.9-1.7 3.3-6.2 9.1-9.8 13-3.6 3.9-8.8 8.3-11.5 9.7-2.7 1.5-7.6 3.2-10.9 3.9-3.3 0.6-7.4 0.8-9 0.5-1.6-0.4-4.6-1.6-6.5-2.6-1.9-1-24.9-23.1-51-49.1-26.2-26-49.5-48.8-56-53.8l-9.7 9.2c-5.4 5.1-28.2 27.7-50.8 50.4-38.7 38.7-41.3 41.2-46.5 42.9-4 1.3-7.1 1.6-11.5 1.2-3.5-0.4-8.3-1.8-11.5-3.4-3.3-1.6-9.2-6.3-14.8-11.7-5.7-5.6-10.1-10.8-11.3-13.6-1.2-2.5-2.3-6.5-2.6-9-0.3-2.8 0.1-6.8 1.2-10.5 1.7-6 1.7-6 105.6-110l-50.3-50.8c-36.8-37.1-51-52.2-53.1-56-2.2-4.1-2.8-6.5-2.7-11.2 0-4.6 0.7-7.5 3.1-12.5 2.2-4.6 5.3-8.7 10.7-14 5.4-5.3 9.9-8.7 15.1-11.3 5.7-2.8 8.7-3.7 12.5-3.7z"/></svg>