<svg version="1.2" xmlns="http://www.w3.org/2000/svg" viewBox="0 0 1024 1024" width="1024" height="1024"><style>.a{opacity:1;fill:#010101}</style><path fill-rule="evenodd" class="a" d="m517.5 141.5c13.4 0.2 29.7 1.1 37 1.9 7.1 0.9 18.2 2.5 24.5 3.7 6.3 1.1 17.8 3.5 25.5 5.4 7.7 1.8 19.2 5 25.5 7 6.3 2.1 17.8 6.4 25.5 9.7 7.7 3.3 20.5 9.3 28.5 13.5 8 4.1 20.3 11.2 27.3 15.7 7 4.4 17 11.3 22.1 15.1 5.2 3.8 13.8 10.7 19.2 15.1 5.5 4.5 17.1 15.6 25.9 24.5 8.8 9 20 21.3 24.9 27.4 4.8 6.1 13.6 18.2 19.5 27 5.8 8.8 14.5 23.6 19.3 33 4.7 9.4 10.6 21.7 13.1 27.5 2.4 5.8 6.5 16.4 9 23.5 2.4 7.1 6.3 20.2 8.5 29 2.2 8.8 5 21.4 6.1 28 1.1 6.6 2.8 19.4 3.7 28.5 1.3 12.8 1.5 22.3 1.1 42-0.3 14.1-1.3 30.6-2.2 37-0.8 6.3-2.4 16.5-3.6 22.5-1.1 6-3.4 16.4-5 23-1.7 6.6-4.6 17-6.6 23-1.9 6-5.7 16.6-8.4 23.5-2.6 6.9-8.6 19.9-13.1 29-4.6 9.1-11.6 21.9-15.6 28.5-4 6.6-11.2 17.5-16 24.1-4.8 6.7-13.3 17.5-18.8 24-5.6 6.6-16.6 18.2-24.5 25.8-7.9 7.7-19.1 17.7-24.9 22.3-5.8 4.6-17 12.8-25 18.2-8 5.4-18.5 12.2-23.5 15.1-5 2.9-13.3 7.4-18.5 10-5.2 2.6-14.5 6.9-20.5 9.5-6 2.6-17.5 6.9-25.5 9.6-8 2.7-21.5 6.7-30 8.8-8.5 2.2-19.8 4.6-25 5.5-5.2 0.8-14.7 2.3-21 3.2-6.5 0.9-22.3 1.8-36.5 2.1-19.6 0.4-28.4 0.2-40.5-1.1-8.5-1-21.8-2.8-29.5-4.1-7.7-1.3-20.5-4.1-28.5-6.1-8-2-20.4-5.6-27.5-8.1-7.1-2.4-18.4-6.7-25-9.5-6.6-2.8-16.9-7.5-23-10.5-6.1-3.1-15.5-8.3-21-11.6-5.5-3.3-14.9-9.4-21-13.5-6.1-4.1-15.9-11.3-22-16.1-6.1-4.7-18.4-15.8-27.4-24.6-9-8.8-20.7-21.2-26-27.5-5.3-6.3-12.5-15.5-16.1-20.5-3.6-5-10-14.6-14.3-21.5-4.3-6.9-11.4-19.5-15.7-28-4.3-8.5-9.9-20.5-12.5-26.5-2.6-6-6.8-17.3-9.5-25-2.6-7.7-6.3-20.3-8.3-28-2-7.7-4.5-18.7-5.6-24.5-1.1-5.8-2.8-16.4-3.7-23.5-1.4-10-1.8-19.5-1.8-41 0-23.3 0.4-30.8 2.2-44.5 1.2-9.1 3.3-21.9 4.7-28.5 1.3-6.6 4.3-18.7 6.5-27 2.3-8.2 6.6-21.5 9.7-29.5 3-8 9.3-22.4 14-32 4.6-9.6 11.5-22.7 15.3-29 3.7-6.3 10.3-16.5 14.6-22.5 4.4-6.1 11.5-15.5 15.9-21 4.3-5.5 16.5-18.6 27-29.1 10.4-10.4 23.9-23 30-27.8 6.1-4.8 15.5-11.8 21-15.5 5.5-3.8 14.3-9.4 19.5-12.6 5.2-3.2 16.5-9.3 25-13.6 8.5-4.2 20.4-9.8 26.5-12.2 6.1-2.5 15.9-6.1 22-8 6.1-1.9 17.5-5.1 25.5-7.1 8-2 21-4.7 29-6 8-1.4 19.4-3 25.5-3.6 6.1-0.5 12.8-1.2 15-1.4 2.2-0.2 14.8-0.3 28-0.1zm-29.5 72.6c-5.2 0.4-14.9 1.5-21.5 2.5-6.6 0.9-18.1 3.1-25.5 4.9-7.4 1.9-18.7 5-25 7.1-6.3 2-15.8 5.5-21 7.7-5.2 2.1-13.8 6.1-19 8.7-5.2 2.7-14.2 7.7-20 11.2-5.8 3.5-14.8 9.5-20 13.4-5.2 3.9-13.6 10.4-18.5 14.6-4.9 4.1-14.6 13.3-21.5 20.4-6.9 7.1-17.2 19.2-23 26.9-5.8 7.7-13.2 18.3-16.5 23.5-3.2 5.2-9.1 16-13.1 24-4 8-9.6 20.8-12.4 28.5-2.9 7.7-6.9 20.8-9 29-2.1 8.3-4.5 19.3-5.4 24.5-0.9 5.2-2.1 14-2.8 19.5-0.6 5.5-1.2 19.9-1.2 32 0 12.1 0.6 27 1.3 33 0.6 6 2.5 17.5 4.1 25.5 1.6 8 4.3 19.2 6 25 1.6 5.8 4.8 15.5 7.1 21.5 2.3 6 7.2 17.3 11 25 3.7 7.7 9.8 18.7 13.4 24.5 3.7 5.8 9.1 13.9 12.1 18 2.9 4.1 8.3 11.1 12 15.5 3.6 4.4 10 11.8 14.2 16.4 4.3 4.7 13 13.1 19.5 18.8 6.4 5.7 16.1 13.6 21.5 17.5 5.3 4 14.2 10.1 19.7 13.6 5.5 3.5 16.1 9.4 23.5 13.1 7.4 3.8 18.7 8.9 25 11.4 6.3 2.5 16.9 6.1 23.5 8 6.6 1.9 17.6 4.7 24.5 6.1 6.9 1.4 17.8 3.3 24.3 4.1 6.4 0.8 18.8 1.8 27.5 2.1 9.2 0.4 21.6 0.2 30.2-0.5 8-0.7 20-2.1 26.8-3.1 6.7-1.1 19.1-3.8 27.5-5.9 8.3-2.1 20.4-5.8 26.7-8.1 6.3-2.3 17.8-7.2 25.5-10.9 7.7-3.7 19.4-10 26-14 6.6-4 18.1-11.8 25.5-17.4 8.9-6.7 19.1-15.7 30.1-26.6 9.1-9.1 19.6-20.4 23.3-25.1 3.7-4.7 11.1-15 16.4-23 5.4-8 13.2-21.2 17.4-29.5 4.2-8.2 9.9-20.6 12.6-27.5 2.8-6.9 6.4-17 8-22.5 1.6-5.5 4.1-15.2 5.6-21.5 1.4-6.3 3.2-16 4.1-21.5 0.9-5.7 1.9-19.9 2.2-33 0.4-14.5 0.1-27.5-0.6-35-0.6-6.6-1.8-16.5-2.6-22-0.8-5.5-3-16.3-4.9-24-1.9-7.7-5-18.5-6.9-24-1.9-5.5-4.9-13.6-6.7-18-1.7-4.4-6.5-14.5-10.5-22.5-4-8-11.8-21.2-17.3-29.5-5.5-8.2-13.1-18.8-16.8-23.5-3.8-4.7-13.1-14.8-20.9-22.5-7.7-7.7-17.8-17.1-22.5-20.9-4.7-3.7-15-11.1-23-16.4-8-5.4-20.4-12.7-27.5-16.4-7.2-3.6-18-8.7-24-11.1-6-2.5-16.2-6.1-22.5-8.2-6.3-2-16-4.7-21.5-6.1-5.5-1.3-15.6-3.2-22.5-4.3-6.9-1.1-18.8-2.5-26.5-3.1-7.7-0.5-19-0.9-25-0.9-6.1 0.1-15.3 0.5-20.5 1zm22 196c2.5 0 8.5 0.4 13.5 0.9 5 0.6 12.4 2 16.5 3.1 4.1 1.2 10.6 3.6 14.5 5.3 3.9 1.8 9.5 4.8 12.5 6.7 3 2 8.6 6.2 12.5 9.5 3.8 3.2 9.8 9.5 13.2 13.9 3.5 4.4 8.6 12.5 11.3 18 2.7 5.5 6 13.6 7.2 18 2 7 2.3 10.2 2.2 26 0 15.5-0.3 19.1-2.2 26-1.3 4.4-4.3 12.3-6.8 17.5-2.5 5.2-6.7 12.4-9.4 16-2.6 3.6-8.3 9.9-12.6 14-4.4 4.2-11.5 9.8-15.9 12.5-4.4 2.7-11.1 6.2-15 7.8-3.9 1.6-10.6 3.7-15 4.8-4.4 1.1-13 2.3-19 2.6-6.8 0.4-14.3 0.1-19.5-0.6-4.7-0.7-12.1-2.4-16.5-3.8-4.4-1.4-11.4-4.2-15.5-6.3-4.1-2.1-10.3-5.9-13.7-8.4-3.5-2.5-9.3-7.6-12.9-11.3-3.7-3.8-9.3-10.8-12.5-15.8-3.3-5-7.3-12.4-9-16.5-1.7-4.1-4-10.9-5.1-15-1-4.1-2.2-12.2-2.5-18-0.4-6.4-0.1-13.8 0.6-19 0.7-4.7 2.4-12.1 3.8-16.5 1.4-4.4 3.9-10.7 5.5-14 1.7-3.3 5.2-9.1 7.9-13 2.6-3.9 8.5-10.6 13.1-15.1 4.6-4.4 11.2-10 14.8-12.4 3.6-2.4 9.6-5.8 13.5-7.6 3.9-1.8 10.6-4.2 15-5.4 4.4-1.2 10.9-2.6 14.5-3 3.6-0.4 8.5-0.8 11-0.9z"/></svg>