<svg version="1.2" xmlns="http://www.w3.org/2000/svg" viewBox="0 0 1024 1024" width="1024" height="1024"><style>.a{opacity:1;fill:#010101}</style><path fill-rule="evenodd" class="a" d="m517.5 141.5c13.4 0.2 29.7 1.1 37 1.9 7.1 0.9 18.2 2.5 24.5 3.7 6.3 1.1 18.7 3.8 27.5 6.1 8.8 2.2 21.9 6.1 29 8.6 7.1 2.4 18.2 6.7 24.5 9.4 6.3 2.7 17.1 7.9 24 11.5 6.9 3.6 18.1 10.1 25 14.3 6.9 4.3 18.8 12.5 26.5 18.2 7.7 5.8 18.3 14.3 23.5 19 5.2 4.7 14.9 14.1 21.5 20.9 6.7 6.8 15.3 16.2 19.1 20.9 3.9 4.7 10.9 13.8 15.5 20.2 4.6 6.4 11.2 16.3 14.6 22 3.4 5.7 8.5 14.8 11.4 20.3 2.9 5.5 7.6 15.2 10.5 21.5 2.8 6.3 7 16.6 9.3 22.8 2.2 6.1 5.9 17.4 8.1 25 2.2 7.5 5.6 21.3 7.5 30.7 1.9 9.4 4.2 23.3 5.2 31 1.3 10.6 1.8 21 1.8 42.5-0.1 21.3-0.5 32-1.8 42.5-1 7.7-2.9 19.6-4.3 26.5-1.4 6.9-4.1 18.6-6 26-2 7.4-5.6 19.4-8.1 26.5-2.5 7.1-6.6 17.7-9 23.5-2.5 5.8-7.5 16.4-11.1 23.5-3.6 7.1-10.2 18.9-14.5 26-4.3 7.1-11.3 17.7-15.5 23.5-4.2 5.8-11 14.5-15.1 19.5-4.1 5-13.4 15-20.5 22.4-7.2 7.3-17.8 17.4-23.6 22.4-5.8 5-15.7 12.9-22 17.6-6.3 4.7-17.1 12.1-24 16.5-6.9 4.3-21.5 12.2-32.5 17.6-11 5.4-26.1 12.1-33.5 14.9-7.4 2.7-19.8 6.7-27.5 8.9-7.7 2.2-18.4 4.9-23.8 6.1-5.3 1.2-15.7 3-23 4-7.2 1.1-18.4 2.5-24.7 3-6.3 0.6-20 1.1-30.5 1.1-10.4 0-23.9-0.5-30-1-6.1-0.6-15.9-1.7-22-2.6-6.1-0.8-15.5-2.4-21-3.5-5.5-1.2-14.5-3.2-20-4.6-5.5-1.3-14.9-4-21-6-6.1-1.9-15.3-5.2-20.5-7.3-5.2-2.1-15.4-6.5-22.5-9.8-7.1-3.3-17.9-8.8-24-12.2-6.1-3.4-17.3-10.4-25-15.6-7.7-5.1-18.1-12.6-23.1-16.6-5-4-14.2-11.8-20.4-17.3-6.2-5.5-15.8-15-21.3-21-5.5-6-14.2-16.2-19.2-22.5-5.1-6.3-12.2-15.8-15.7-21-3.6-5.2-9.2-14-12.5-19.5-3.3-5.5-9.2-16.3-13.1-24-3.8-7.7-9.1-19-11.7-25-2.6-6-6.9-17.5-9.6-25.5-2.7-8-6.7-21.5-8.8-30-2.2-8.5-4.9-21.1-6-28-1.1-6.9-2.6-17-3.3-22.5-0.6-5.5-1.2-21.7-1.2-36 0-14.8 0.5-30.7 1.2-37 0.7-6.1 2.2-16.6 3.3-23.5 1.1-6.9 3.5-18.8 5.4-26.5 1.8-7.7 5.4-20.5 8.1-28.5 2.6-8 6.9-19.9 9.6-26.5 2.7-6.6 8.2-18.5 12.2-26.5 4-8 9.9-18.8 13.1-24 3.1-5.2 9.1-14.4 13.3-20.5 4.1-6.1 11.8-16.4 17.1-23 5.2-6.6 16.5-19 25.1-27.6 8.5-8.6 21.4-20.2 28.5-25.9 7.1-5.7 18.2-13.8 24.5-18 6.3-4.2 16-10.3 21.5-13.5 5.5-3.1 14.7-8.1 20.5-11 5.8-2.9 15.4-7.4 21.5-10 6.1-2.6 18.2-7.1 27-10 8.8-2.9 21.6-6.7 28.5-8.4 6.9-1.7 19-4.2 27-5.5 8-1.3 19.7-2.9 26-3.5 6.3-0.6 13.3-1.3 15.5-1.5 2.2-0.2 14.8-0.3 28-0.1zm-30.5 73.5c-4.7 0.4-13.7 1.5-20 2.4-6.3 1-16.7 2.8-23 4.2-6.3 1.4-18.7 5-27.5 7.9-8.8 2.9-21.4 7.6-28 10.4-6.6 2.9-16.9 7.9-23 11.3-6.1 3.3-15.5 9-21 12.6-5.5 3.7-14.5 10.2-20 14.5-5.5 4.4-17.4 15.4-26.5 24.6-10.2 10.3-19.9 21.4-25.5 28.9-4.9 6.7-12 17-15.7 22.9-3.7 6-9.7 16.7-13.2 23.8-3.6 7.1-8.3 17.9-10.6 24-2.3 6.1-5.2 14.4-6.5 18.5-1.3 4.1-3.5 12-4.9 17.5-1.4 5.5-3.4 15.2-4.5 21.5-1.1 6.3-2.5 18-3.2 26-0.7 9-1 22.8-0.6 36.5 0.4 14.5 1.2 26.6 2.6 35.5 1.2 7.4 3.4 18.9 5 25.5 1.6 6.6 4.4 16.3 6.1 21.5 1.7 5.2 5.8 15.8 9.1 23.5 3.2 7.7 8.6 19 12 25 3.3 6 9 15.5 12.6 21 3.6 5.5 10 14.5 14.2 20 4.1 5.5 15.4 17.9 25.1 27.6 9.6 9.7 21.3 20.6 26 24.3 4.7 3.7 15 11.1 23 16.4 8 5.4 20.4 12.7 27.5 16.4 7.2 3.6 16.6 8.1 21 9.8 4.4 1.8 12.5 4.8 18 6.7 5.5 1.8 15.2 4.7 21.5 6.3 6.3 1.6 16.9 3.8 23.5 4.9 6.6 1.1 16.7 2.5 22.5 3.1 5.8 0.5 18.8 1 29 1 10.2 0 23.5-0.5 29.5-1.1 6-0.6 17.3-2.1 25-3.4 7.7-1.4 19.6-4 26.5-5.9 6.9-1.9 17-5.1 22.5-7.1 5.5-2.1 14-5.6 19-7.8 5-2.2 13.5-6.5 19-9.4 5.5-3 15.6-9.2 22.5-13.8 6.9-4.6 16.3-11.4 21-15.1 4.7-3.7 15.7-14 24.6-22.8 8.8-8.9 19.1-19.9 22.8-24.6 3.7-4.7 11.1-15 16.4-23 5.4-8 13.2-21.2 17.4-29.5 4.2-8.2 9.9-20.6 12.6-27.5 2.8-6.9 6.2-16.3 7.6-21 1.4-4.7 3.7-13.2 5-19 1.4-5.8 3.5-17 4.7-25 2-12.4 2.3-18.5 2.3-42.5 0-21.9-0.3-30.6-1.7-40-1-6.6-3-17.4-4.4-24-1.3-6.6-4.1-17.2-6-23.5-1.9-6.3-5.5-16.7-7.9-23-2.5-6.3-8.2-18.7-12.7-27.5-4.5-8.8-11.9-21.6-16.5-28.5-4.6-6.9-11.8-16.8-16-22-4.2-5.2-13.7-15.6-21.1-23.1-7.5-7.4-18.1-17.1-23.6-21.5-5.5-4.4-15.2-11.4-21.5-15.6-6.3-4.2-16.5-10.3-22.5-13.7-6-3.3-16.2-8.2-22.5-10.9-6.3-2.8-16.2-6.6-22-8.7-5.8-2-16.4-5.1-23.5-7-7.1-1.8-18.9-4.2-26-5.4-7.1-1.1-18.7-2.5-25.8-3-7-0.6-19.1-1-27-1-7.8 0.1-18 0.5-22.7 0.9zm27.5 106.4c18.4 0.3 22.5 0.7 33.5 3.1 6.9 1.5 16.5 4 21.5 5.7 5 1.7 13.5 5.1 19 7.7 5.5 2.6 13.1 6.7 17 9.1 3.9 2.4 9.9 6.5 13.5 9.2 3.6 2.7 6.7 4.8 7 4.8 0.3 0 6.8-7 14.5-15.7 7.7-8.6 14.9-16.2 16-17 1.1-0.7 3.6-1.7 5.6-2.3 2.3-0.6 5-0.6 8 0.2 2.8 0.6 5.7 2.3 11.6 8.3l0.6 57.3c0.5 39.6 0.4 58-0.4 60-0.6 1.5-2 3.8-3.2 5.1-1.2 1.3-3.7 3-5.5 3.7-2.6 1.1-13.8 1.4-57.7 1.4-52.5 0-54.6-0.1-58.5-2-2.2-1.1-4.9-3.5-6-5.2-1.2-2-1.9-5.1-1.9-7.8 0-2.5 0.5-5.7 1.2-7.2 0.7-1.5 7.7-10 15.7-18.9 8-8.9 14.9-16.9 15.4-17.8 0.7-1.2 0.2-2.1-2-3.8-1.6-1.2-6.3-3.9-10.4-5.9-4.1-2-11.3-5-16-6.6-4.7-1.5-12.3-3.6-17-4.5-5.9-1.2-13.6-1.7-25-1.7-13.7-0.1-18.3 0.3-27 2.3-5.8 1.3-13.6 3.4-17.5 4.8-3.9 1.4-11.1 4.6-16 7-4.9 2.5-12.4 6.8-16.5 9.6-4.1 2.8-11.8 9.3-17.1 14.6-5.5 5.5-12 13.3-15.2 18.1-3 4.7-7.2 11.9-9.2 16-2.1 4.1-4.9 10.4-6.2 14-1.4 3.6-3.6 11.2-4.9 17-1.4 5.9-2.7 15.7-3.1 22.5-0.4 7.6-0.1 15.6 0.7 22 0.7 5.5 2.3 14 3.7 19 1.3 5 4.1 12.8 6.1 17.5 2.1 4.7 6.3 12.3 9.3 17 3.1 4.7 8.3 11.6 11.6 15.5 3.4 3.9 9.7 10 14 13.6 4.3 3.6 10.5 8.4 13.8 10.6 3.3 2.2 9.8 6 14.5 8.3 4.7 2.4 11.4 5.4 15 6.7 3.6 1.4 10.1 3.3 14.5 4.3 4.4 1.1 13.2 2.4 19.5 3 8.1 0.7 14.6 0.7 22 0 5.8-0.6 14.3-2 19-3.1 4.7-1.1 11.4-3 15-4.3 3.6-1.3 9.9-4 14-6.1 4.1-2 11.1-6.1 15.5-9 4.4-2.9 11.3-8.4 15.4-12.1 4.1-3.8 10.2-10.5 13.6-14.9 3.4-4.4 8-10.9 10.3-14.5 2.2-3.6 6.3-11.2 9-17 2.7-5.8 6-13 7.3-16 1.3-3 3.8-7 5.4-8.9 1.6-1.8 4.8-4.3 7-5.4 2.2-1.1 6.5-2.2 9.5-2.4 3-0.3 7.3 0 9.5 0.5 2.2 0.6 6.2 2.6 9 4.4 3.5 2.3 5.8 4.9 7.8 8.8 2.7 5.2 2.9 6 2.4 14.5-0.4 5.7-1.5 12.1-3.2 17.5-1.5 4.7-5 13.5-7.9 19.5-2.9 6-7.7 14.8-10.7 19.5-3.1 4.7-9.2 13-13.6 18.5-4.4 5.5-12.3 14-17.4 18.9-5.2 5-13 11.6-17.4 14.9-4.4 3.3-12.3 8.4-17.5 11.5-5.2 3.1-13.3 7.2-18 9.3-4.7 2-12.8 5-18 6.7-5.2 1.7-14 4-19.5 5.1-5.5 1.1-15.9 2.5-23 3.2-9.8 0.8-16.5 0.8-27 0-7.7-0.7-18.5-2.1-24-3.2-5.5-1.1-13.8-3.2-18.5-4.6-4.7-1.4-13-4.4-18.5-6.7-5.5-2.3-15.4-7.4-22-11.3-6.6-3.9-16.3-10.4-21.5-14.4-5.2-4.1-13.8-11.7-19-16.9-5.3-5.2-12.3-13.1-15.6-17.5-3.4-4.4-8.7-12-12-17-3.2-5-8.1-14-11-20-2.9-6-6.6-15.5-8.4-21-1.7-5.5-4-14-5-19-1-5-2.4-13.7-3.1-19.5-0.7-6.4-0.9-15.5-0.6-23.5 0.4-7.1 1.4-18.2 2.3-24.5 0.8-6.3 2.6-15.6 3.9-20.5 1.2-4.9 4.4-14.2 6.9-20.5 2.6-6.3 6.8-15.3 9.3-20 2.6-4.7 6.9-11.9 9.6-16 2.8-4.1 7.8-10.9 11.1-15 3.3-4.1 10.1-11.5 15.1-16.4 4.9-4.9 12.6-11.7 17-15.1 4.4-3.4 11.4-8.4 15.5-11.1 4.1-2.6 12.4-7.1 18.5-10 6.1-2.9 14.8-6.5 19.5-8.2 4.7-1.6 12.3-3.9 17-5.1 4.7-1.2 12.8-2.8 18-3.6 6.7-1 15.8-1.3 30.5-1.1z"/></svg>