<svg version="1.2" xmlns="http://www.w3.org/2000/svg" viewBox="0 0 1024 1024" width="1024" height="1024"><style>.a{opacity:1;fill:#010101}</style><path fill-rule="evenodd" class="a" d="m509.5 141.2c7.1-0.1 21.1 0.5 31 1.3 9.9 0.8 24.8 2.6 33 4 8.3 1.4 21.5 4.1 29.5 6 8 2 19.5 5.2 25.5 7.1 6 2 16.6 5.9 23.5 8.6 6.9 2.8 18.2 7.9 25.3 11.4 7 3.5 18.7 10 25.9 14.3 7.3 4.3 17.6 10.9 22.8 14.6 5.2 3.7 13.8 10.2 19 14.3 5.2 4.2 17.9 16 28.1 26.2 10.2 10.2 22.5 23.4 27.3 29.5 4.8 6.1 12.2 16.2 16.5 22.5 4.3 6.3 11.8 18.3 16.6 26.5 4.8 8.3 11.2 20.2 14.2 26.5 3 6.3 7.4 16.4 9.8 22.5 2.4 6.1 6.6 18.4 9.3 27.5 2.8 9.1 6.9 25.5 9.1 36.5 2.2 11 4.8 26.5 5.8 34.5 1.3 10.4 1.7 21.5 1.7 39 0 16.6-0.6 29.2-1.8 39-0.9 8-3.1 21.5-4.8 30-1.7 8.5-5 22.3-7.3 30.5-2.4 8.3-6.4 20.9-9.1 28-2.6 7.1-9.8 23.1-16.1 35.5-6.2 12.4-14.2 27.2-17.9 33-3.6 5.8-9.8 15-13.7 20.5-4 5.5-10.5 14-14.6 19-4.1 4.9-13.4 15-20.5 22.4-7.2 7.3-17.8 17.4-23.6 22.4-5.8 5-15.7 12.9-22 17.6-6.3 4.7-17.8 12.6-25.5 17.4-7.7 4.8-20.8 12.1-29 16.2-8.3 4-21.3 9.8-29 12.8-7.7 3.1-20.1 7.4-27.5 9.6-7.4 2.3-18.5 5.2-24.5 6.6-6 1.3-16.2 3.3-22.5 4.4-6.3 1.1-18 2.7-26 3.7-9.9 1.2-21.6 1.8-37 1.7-17.5 0-26.3-0.5-39.5-2.2-9.4-1.2-21.7-3.1-27.5-4.2-5.8-1.1-16.8-3.6-24.5-5.6-7.7-1.9-20.5-5.8-28.5-8.6-8-2.7-19.7-7.2-26-9.9-6.3-2.7-17.6-8.1-25-11.9-7.4-3.9-21.1-12.1-30.5-18.4-9.4-6.2-22.2-15.5-28.7-20.6-6.4-5.2-16.5-13.9-22.5-19.5-5.9-5.5-15.3-15.2-20.9-21.5-5.6-6.3-13.6-15.9-17.9-21.4-4.3-5.5-10.4-13.8-13.5-18.5-3.1-4.7-8.5-13.2-12-19-3.4-5.8-8.8-15.7-12-22-3.2-6.3-8.2-17.1-11.3-24-3-6.9-7.7-19-10.5-27-2.7-8-6.8-21.7-9-30.5-2.2-8.8-5.2-23.2-6.6-32-1.4-8.8-3-21.7-3.6-28.7-0.5-7.1-1-18.7-1-25.8 0-7.1 0.5-18.7 1.1-25.7 0.5-7.1 1.8-18.7 2.9-25.8 1-7.1 3.5-20.4 5.5-29.5 2-9.1 5.3-21.7 7.2-28 1.9-6.3 5.9-17.8 9-25.5 3-7.7 8.5-20.3 12.2-28 3.7-7.7 9.8-19.2 13.6-25.5 3.7-6.3 9.5-15.5 12.8-20.5 3.3-4.9 8.7-12.6 12.1-17 3.3-4.4 8.2-10.7 11-14 2.8-3.3 8.9-10.2 13.6-15.4 4.7-5.2 13.7-14.2 20-19.9 6.3-5.8 15.8-14 21-18.1 5.2-4.2 14.9-11.2 21.5-15.7 6.6-4.4 18.3-11.6 26-15.9 7.7-4.4 20.7-11 29-14.8 8.2-3.8 22.2-9.3 31-12.2 8.8-3 22.5-6.9 30.5-8.9 8-1.9 21-4.6 29-6 8-1.3 19.7-2.9 26-3.5 6.3-0.6 13.7-1.3 16.5-1.4 2.7-0.2 10.9-0.4 18-0.5zm-25 73.4c-2.2 0.3-9.2 1.1-15.5 2-6.3 0.8-17.6 2.9-25 4.6-7.4 1.7-18.4 4.6-24.5 6.5-6.1 2-15.3 5.2-20.5 7.3-5.2 2.1-14 5.9-19.5 8.5-5.5 2.5-15.6 8-22.5 12.1-6.9 4.1-17.9 11.5-24.5 16.4-6.6 5-16.5 13.2-22 18.3-5.5 5-14.4 13.9-19.8 19.7-5.4 5.8-13.7 15.8-18.5 22.2-4.8 6.4-11.6 16.3-15.2 22-3.5 5.7-9.2 15.7-12.5 22.3-3.4 6.6-8.5 18.1-11.4 25.5-2.9 7.4-6.8 18.7-8.6 25-1.8 6.3-4.5 17.4-5.9 24.5-1.3 7.1-3.2 19.5-4.2 27.5-1.3 11.4-1.5 20-1.1 40 0.4 18.3 1.1 29.2 2.5 38.5 1.1 7.1 3.2 18.2 4.7 24.5 1.5 6.3 5 18 7.8 26 2.7 8 7.3 19.7 10.1 26 2.8 6.3 7.7 16 10.8 21.5 3.1 5.5 8.7 14.7 12.6 20.5 3.8 5.8 10 14.5 13.9 19.5 3.8 5 11.2 13.7 16.5 19.5 5.2 5.8 14.4 14.8 20.4 20.1 6 5.3 15.9 13.4 22.1 18 6.1 4.6 15.8 11.3 21.5 14.9 5.6 3.5 15.7 9.2 22.3 12.5 6.6 3.4 17.9 8.4 25 11.2 7.1 2.8 18.6 6.7 25.5 8.7 6.9 1.9 17 4.4 22.5 5.5 5.5 1.1 15.6 2.8 22.5 3.8 9.5 1.3 19 1.7 39.5 1.7 22.4 0 29.3-0.4 40.5-2.1 7.4-1.2 18.9-3.3 25.5-4.8 6.6-1.5 17.2-4.4 23.5-6.4 6.3-2.1 17.1-6.1 24-8.9 6.9-2.9 18.4-8.4 25.5-12.3 7.1-3.9 17.7-10.2 23.5-14.1 5.8-3.9 13.4-9.4 17-12.1 3.6-2.8 11.4-9.4 17.4-14.7 6-5.2 15.4-14.5 20.8-20.5 5.5-6 13.9-16.2 18.7-22.5 4.8-6.3 11.9-16.7 15.8-23 3.9-6.3 9.1-15.3 11.6-20 2.5-4.7 6.8-13.7 9.5-20 2.8-6.3 6.6-16 8.5-21.5 1.9-5.5 5.1-16.5 7.1-24.5 2-8 4.6-20.8 5.8-28.5 1.9-12 2.2-18.1 2.2-43 0-25.1-0.3-31-2.2-43.5-1.3-8-3.6-19.9-5.2-26.5-1.5-6.6-4.3-16.5-6-22-1.8-5.5-5-14.5-7.2-20-2.2-5.5-7.3-16.5-11.4-24.5-4-8-10.2-19-13.6-24.5-3.5-5.5-9.7-14.5-13.8-19.9-4.1-5.5-11.1-14-15.6-19-4.4-5-12.1-12.9-17-17.6-4.9-4.7-12.8-11.6-17.4-15.3-4.7-3.8-14.8-11.1-22.5-16.2-7.7-5.1-18.7-11.8-24.5-14.9-5.8-3-15.7-7.7-22-10.4-6.3-2.7-17.8-7-25.5-9.5-7.7-2.5-19.4-5.7-26-7.2-6.6-1.5-17.9-3.6-25-4.7-10-1.5-19.2-2-40-2.3-14.9-0.2-28.8-0.1-31 0.1zm169 144.5c5.3-0.1 8.2 0.5 12 2.2 2.7 1.3 8.1 5.3 12 8.9 4.5 4.1 8.2 8.8 10.4 12.9 2.6 4.9 3.5 8 3.9 12.9 0.2 3.6-0.1 8.3-0.6 10.5-0.6 2.2-2.6 6.3-4.4 9-1.8 2.8-49.9 51.7-106.8 108.8-90.9 91.2-104.2 104.2-109.5 106.8-4.4 2.2-7.4 2.9-11.5 3-4.1 0-6.8-0.7-10.7-2.8-3.9-2.1-19.7-17.1-60.3-57.3-45.9-45.3-55.6-55.4-57.8-60-2.1-4.3-2.7-6.9-2.6-12 0-4.9 0.7-8 2.8-12.5 2-4.4 5.2-8.4 11.9-15.1 5.1-4.9 11-9.9 13.2-10.9 2.5-1.2 6.9-2.1 11.5-2.3 6.7-0.3 8.1 0 13.5 2.7 5 2.5 12.2 9.1 79 75.9l87-87c47.9-47.8 88.4-87.9 90-89.1 1.6-1.2 4.6-2.7 6.5-3.4 1.9-0.7 6.6-1.2 10.5-1.2z"/></svg>