<svg version="1.2" xmlns="http://www.w3.org/2000/svg" viewBox="0 0 1024 1024" width="1024" height="1024"><style>.a{fill:#131a20}</style><path fill-rule="evenodd" class="a" d="m511.5 24c0 0 10.1 5.6 22.5 12.6 12.4 6.9 44.5 25.1 71.5 40.4 27 15.2 63.4 35.8 81 45.7 17.6 10 52.7 30 78 44.5 25.3 14.5 66 37.9 90.5 52 24.5 14.1 51.3 29.6 74.5 43.4v490.5l-4 2.6c-2.2 1.5-12.3 7.7-22.5 13.8-10.2 6.2-43.7 26.4-74.5 45-30.8 18.6-71.3 42.9-90 54-18.7 11.1-52 31-74 44.2-22 13.2-63.2 38-91.5 55-28.3 17-53.3 32.1-55.5 33.6-2.2 1.5-4.6 2.7-5.3 2.7-0.6 0-14.1-7.9-29.9-17.6-15.9-9.7-35.1-21.3-42.8-25.7-7.7-4.4-30-17.7-49.5-29.5-19.5-11.8-70.8-42.7-114-68.5-43.2-25.9-92.2-55.3-109-65.2-16.8-10-40.1-24-73.1-44l0.6-490.7 27.5-15.8c15.1-8.6 43.5-25 63-36.5 19.5-11.4 44.1-25.7 54.5-31.7 10.4-6.1 30.5-17.5 44.5-25.5 14-8 33.1-18.8 42.5-24.1 9.4-5.2 26.7-14.9 38.5-21.7 11.8-6.7 39.9-22.7 62.5-35.5 22.6-12.8 47.3-26.9 55-31.3 7.7-4.5 17.4-10 21.5-12.4 4.1-2.4 7.5-4.3 7.5-4.3zm-10.5 43.8c-5.8 3.2-19.5 11-30.5 17.3-11 6.4-40.5 23.2-65.5 37.4-25 14.2-54.9 31.2-66.5 37.8-11.6 6.6-37.2 21.2-57 32.5-19.8 11.2-51.5 29.3-70.5 40.2-19 10.9-42.2 24.3-51.5 29.7-9.4 5.5-20.7 12.2-25.3 14.9l-8.2 4.9v454.5c4.3 2.9 9.1 5.7 13.5 8.2 4.4 2.4 21.1 12 37 21.3 15.9 9.2 38.7 22.7 50.5 30 11.8 7.2 29.8 18.1 40 24.2 10.2 6.1 38.1 22.8 62 37 23.9 14.3 60.6 36.3 81.5 49 20.9 12.6 51.9 31.3 69 41.3 17.1 10.1 31.7 18.5 32.5 18.7 0.8 0.2 24-13.2 51.5-29.8 27.5-16.6 55.2-33.2 61.5-36.9 6.3-3.7 22.1-13.2 35-21.2 12.9-7.9 36.3-22.1 52-31.4 15.7-9.4 43.6-26.1 62-37.1 18.4-11 53.7-32 78.5-46.8 24.7-14.7 45.1-26.9 45.2-26.9 0.2-0.1 0.3-102.2 0.3-227.1 0-178.2-0.3-227.2-1.3-228.1-0.6-0.6-13.6-8.3-28.7-17.1-15.1-8.8-48-27.7-73-42-25-14.3-59.7-34-77-43.8-17.3-9.8-46.1-26.2-64-36.5-17.9-10.3-36.1-20.6-40.5-23-4.4-2.4-21.3-11.9-37.5-21-16.2-9.2-37.1-21.1-46.5-26.4-9.4-5.3-17.2-9.6-17.5-9.6-0.3 0-5.2 2.6-11 5.8zm11.1 62.2c0.5 0 11.6 17.8 24.6 39.6 13.1 21.8 24.1 39.8 24.5 40 0.5 0.2 3.2-0.9 6-2.5 2.9-1.5 13.8-8 24.3-14.3 10.5-6.3 23.3-14.1 28.5-17.5 5.2-3.3 10.5-6.3 11.7-6.6 1.3-0.4 2.3-0.5 2.3-0.2 0 0.3-1.3 4.9-2.9 10.2-1.6 5.4-7.2 24.2-12.5 41.8-5.4 17.6-11.3 36.9-13.3 43-1.9 6-4 11.4-4.4 12-0.6 0.7-3.8 0.1-9.2-1.7-4.5-1.5-12.2-3.6-17.2-4.7-5-1.1-13.3-2.7-18.5-3.5-5.2-0.8-16-2-24-2.7-8.4-0.6-21-0.8-30-0.4-8.5 0.3-20.5 1.3-26.5 2.1-6.1 0.8-13.5 1.9-16.5 2.5-3 0.6-12.4 2.9-20.7 5.2-8.4 2.3-15.5 4-15.7 3.7-0.3-0.3-2-5.7-4-12-1.9-6.3-6.4-21.6-10.1-34-3.7-12.4-9.4-31.1-12.6-41.5-3.3-10.5-5.8-19.5-5.7-20.1 0.2-0.6 12.4 6.2 27.3 15.3 14.9 9 30.9 18.6 35.7 21.4 4.9 2.7 9 4.8 9.2 4.6 0.2-0.1 3.5-5.2 7.3-11.2 3.8-6.1 14.7-23.9 24.2-39.8 9.5-15.8 17.7-28.7 18.2-28.7zm-131.6 156.7c1.6 0.3 3.9 1 5 1.6 1.1 0.6 8.7 7.2 17 14.6 8.2 7.5 19.3 17.7 24.5 22.6 5.2 5 10.4 9.8 11.5 10.8 1.9 1.7 2.2 1.6 10.5-4.2 4.7-3.3 12.8-8.2 18-11 5.2-2.7 12.4-5.8 16-6.9 3.6-1.1 11.2-2.5 17-3.2 7.7-0.8 13.4-0.8 21.5 0 6 0.7 14.7 2.3 19.2 3.6 4.6 1.3 10.9 3.6 14 5 3.2 1.4 9.4 4.8 13.8 7.6 4.4 2.8 9.7 6.4 15.5 10.8l6.7-6.3c3.8-3.4 10.8-9.8 15.8-14.2 5-4.4 14.2-12.7 20.5-18.6 6.3-5.8 12.5-11.1 13.7-11.7 1.3-0.7 3.4-1.2 4.8-1.2 1.4 0 4.2 0.8 6.2 1.7 2 1 4.5 3.2 5.5 4.8 1 1.6 1.8 4.5 1.8 6.2 0 1.8-0.6 4.5-1.4 6-0.8 1.6-7 8.2-13.8 14.8-6.8 6.7-19 18.1-27.1 25.5-8.1 7.4-14.8 13.8-14.7 14.2 0 0.5 2.4 5.6 5.4 11.5 3 6 6.4 14.4 7.6 18.8 1.1 4.4 2.4 12.5 2.7 18 0.3 5.7 0.1 13.8-0.6 19-0.7 4.9-2.6 13-4.2 18-1.7 4.9-4.7 11.9-6.7 15.5-2 3.6-6.5 10.2-16.2 23l6 8 8.7-6.3c4.9-3.5 17.3-12 27.8-19 10.5-6.9 26.6-16.9 36-22.2 9.3-5.4 24-13.2 32.5-17.5 8.5-4.3 22.7-10.9 31.5-14.8 8.8-3.9 20.5-8.7 26-10.6 5.5-1.9 16.7-5.4 25-7.6 8.2-2.3 24.5-5.9 36-8.1 13.8-2.6 23.9-3.9 29.5-3.9 7 0 9.3 0.4 13 2.3 2.6 1.4 5.3 3.8 6.5 5.8 1.3 2.3 2.1 5.9 2.3 11.4 0.3 5.5-0.2 12.1-1.8 21-1.2 7.1-4 18.4-6.1 25-2.2 6.6-5.9 16-8.4 21-2.4 4.9-6.7 12.6-9.6 17-3 4.5-10.3 13-16.9 19.5-7.1 7.2-15.1 13.9-21 17.9-5.2 3.4-14.5 8.7-20.5 11.6-6 2.9-13.4 6-16.3 6.9-2.8 0.9-5.1 2-5 2.5 0.2 0.5 3.9 3.5 8.3 6.8 4.4 3.3 14 11.8 21.4 18.9 7.3 7.1 15.9 16.3 18.9 20.4 3.1 4.1 7.5 11.1 9.9 15.5 2.3 4.4 5.4 12 6.9 17 2.2 7.5 2.7 11.1 2.8 21.2 0.1 10.9-0.1 12.4-2 15-1.2 1.5-4.1 3.8-6.5 5-2.4 1.2-7.1 2.9-10.4 3.8-3.3 0.8-11.4 2-18 2.6-6.6 0.6-19.2 0.9-28 0.6-12.5-0.4-18.6-1.1-28-3.2-6.6-1.5-16.5-4.3-22-6.2-5.5-1.9-15.2-6-21.5-9.1-6.3-3.1-16.9-9.2-23.5-13.7-6.6-4.4-16.7-11.8-22.5-16.4-5.8-4.7-14.8-12.8-20.1-18-5.2-5.3-12.4-12.9-22.4-24.3l-5.8 7.6c-4.9 6.5-5.5 7.8-4.5 9.3 0.7 1 4.2 5.2 7.6 9.3 3.5 4.1 8.8 11.1 11.7 15.5 3 4.4 7.4 12.3 9.9 17.5 2.5 5.2 6.1 14.2 8 20 1.9 5.8 4.2 14.3 5 19 0.8 4.7 1.7 14.8 2.1 22.5 0.5 10.2 0.2 17.6-0.9 27.2-0.9 7.3-2.3 16.8-3.2 21-0.9 4.3-3.1 12.1-5.1 17.3-1.9 5.2-6.1 14.9-9.3 21.5-3.2 6.6-8.8 16.5-12.5 22-3.7 5.5-10.4 14.7-14.9 20.4-4.4 5.8-13.7 16.3-20.6 23.4-6.9 7.2-18.2 17.5-25.1 23.1-6.9 5.6-17.5 13.5-23.5 17.7-6 4.2-11.9 8.1-13.2 8.7-1.9 1.1-3.2 0.6-10.8-4.1-4.7-2.8-13.8-9.2-20.2-14.2-6.4-4.9-19.3-16.4-28.6-25.5-9.2-9.1-20.9-21.5-25.9-27.5-4.9-6-11.6-14.8-14.7-19.5-3.1-4.7-7.7-12.3-10.3-17-2.5-4.7-6.8-14.1-9.5-21-2.8-6.9-6-15.6-7.1-19.5-1.2-3.9-2.9-10.8-3.8-15.5-1.3-6.5-1.7-13.8-1.7-31 0-19.1 0.4-24 2.2-32.5 1.1-5.5 3.5-14 5.3-19 1.7-5 5.2-13 7.6-18 2.5-5 6-11.3 7.8-14 1.7-2.8 7.6-10.5 23-29.7l-2.3-2.6c-1.2-1.5-3.7-4.8-5.5-7.4-1.7-2.6-3.5-4.8-4-4.8-0.4 0-4 3.9-8 8.7-3.9 4.8-9.7 11.3-12.7 14.3-3 3.1-11.4 10.5-18.5 16.5-7.1 6-17.7 14.3-23.5 18.3-5.8 4.1-16.8 10.5-24.5 14.2-7.7 3.8-17.4 8-21.5 9.5-4.1 1.4-11.6 3.7-16.5 5-5 1.3-14.1 3-20.3 3.9-6.1 0.9-16.8 1.6-23.7 1.6-7.9 0-16.8-0.7-24.3-2-6.4-1.1-14.3-3-17.6-4.2-3.2-1.3-7.7-3.9-9.9-5.8-3.7-3.2-4-4-4.5-9.5-0.2-3.3 0.1-9.6 0.7-14 0.6-4.4 2.4-11.8 4-16.5 1.5-4.7 4.3-11.4 6.1-15 1.8-3.6 5.8-10.3 8.9-15 3.1-4.7 9.9-12.8 15.1-18 5.2-5.3 14.2-13 20-17.2 5.8-4.1 11.6-8.1 13-8.7 1.5-0.8 2.1-1.6 1.5-2-0.6-0.5-4.4-2.1-8.5-3.6-4.1-1.5-12.7-5.4-19-8.7-6.3-3.3-14.4-8.1-18-10.6-3.6-2.6-10.8-8.8-16-13.8-5.2-5-12.3-13.2-15.8-18-3.5-4.9-8.7-13.6-11.7-19.4-3-5.8-7.2-15.9-9.4-22.5-2.2-6.6-5-17.6-6.2-24.5-1.4-8.4-2-15-1.7-20 0.3-4.4 1.3-9.1 2.4-11.5 1-2.2 3.5-5 5.4-6.3 1.9-1.2 5.7-2.7 8.5-3.3 4.3-1 7.7-0.7 24 2 10.4 1.7 25.1 4.6 32.5 6.5 7.4 1.9 22 6.2 32.5 9.7 10.4 3.4 27.1 9.7 37 14.1 9.9 4.4 24.3 11.2 32 15.2 7.7 4 20.3 10.8 28 15.1 7.7 4.3 20.5 12.2 28.5 17.6 8 5.3 20.8 14.3 42.5 30l7.5-8.1-5.3-6.3c-2.9-3.4-6.5-8.5-8.1-11.2-1.6-2.8-4.7-9.7-6.8-15.5-2.1-5.8-4.5-13.8-5.3-17.8-0.8-3.9-1.5-12-1.5-18 0-5.9 0.5-13.6 1.1-17.2 0.5-3.6 2.2-9.9 3.5-14 1.4-4.1 4.4-10.9 6.7-15 2.3-4.1 4.3-7.7 4.5-8 0.2-0.3-12.1-12.2-27.4-26.5-15.2-14.3-28.2-27.2-29-28.8-0.8-1.5-1.4-3.8-1.4-5.2 0-1.4 0.7-3.9 1.5-5.5 0.8-1.6 2.7-3.8 4.2-4.9 1.6-1 3.7-2.1 4.8-2.4 1.1-0.3 3.4-0.3 5 0zm111 52.6c-3.9 1.4-9.9 3.7-13.5 5.2-3.6 1.6-9.2 4.7-12.5 7-3.3 2.3-8.7 7.4-12 11.4-3.3 3.9-8.1 10.8-10.7 15.4-2.6 4.5-5.8 11.8-7 16.2-1.7 6.1-2.2 10.7-2.2 19.5 0 7.4 0.6 14 1.8 18.5 0.9 3.9 3.5 10.8 5.8 15.5 3.4 6.9 5.9 10.2 13.3 17.5 5.8 5.9 11.6 10.5 16.5 13.2 4.1 2.4 10.6 5.4 14.5 6.8 3.9 1.3 11.5 3 17 3.6 7.7 0.9 12.1 0.9 19.5 0 5.2-0.7 12.9-2.3 17-3.6 4.1-1.4 10.4-4.1 14-6.2 3.6-2.1 10.3-7.6 15-12.3 4.7-4.7 10-11 11.7-14 1.8-3 4.5-8.4 5.9-12 1.5-3.6 3.3-9.6 4.1-13.5 1-4.8 1.3-10.4 1-17.5-0.3-7.8-1.2-12.6-3.2-18.5-1.4-4.4-3.9-10.3-5.5-13-1.6-2.8-6-8.8-9.7-13.4-3.7-4.7-9.1-10.3-11.8-12.4-2.8-2.2-7.9-5.4-11.5-7.2-3.6-1.8-9.6-4.3-13.5-5.5-5.6-1.8-9.9-2.3-22-2.6-13.7-0.4-15.6-0.2-22 1.9zm-311.5 72.9c0 2.4 1.2 8.6 2.6 13.8 1.4 5.2 3.7 12.4 5.1 16 1.4 3.6 4.4 10.1 6.6 14.5 2.1 4.4 6.2 11.8 9.1 16.5 2.8 4.7 8.2 11.7 12.1 15.6 3.8 3.9 10.8 9.6 15.5 12.6 4.7 3.1 11.4 7 15 8.8 3.6 1.8 11 4.7 16.5 6.6 5.5 1.8 14.6 4.2 20.2 5.3 8.6 1.8 14.2 2.1 34 2.1 13.1 0.1 28.3-0.4 33.8-1 5.5-0.6 14-1.5 19-2 4.9-0.6 16-2.2 24.5-3.7 8.5-1.5 16.1-3.1 16.8-3.7 0.7-0.6 1.3-1.4 1.2-1.9 0-0.4-5.1-4.2-11.3-8.6-6.1-4.3-15.7-10.9-21.2-14.6-5.5-3.8-13.1-8.9-17-11.5-3.9-2.6-14.4-9-23.5-14.2-9.1-5.3-22.5-12.5-29.8-16.2-7.2-3.6-19.2-9.1-26.5-12.2-7.2-3.1-18.8-7.7-25.7-10.1-6.9-2.4-18.4-6-25.5-7.8-7.2-1.9-19.5-4.6-27.5-6-8-1.4-16.6-2.5-19.3-2.5h-4.7zm637.5-1.7c-7.2 1.2-15.3 2.8-18 3.4-2.8 0.6-13.3 3.9-23.5 7.2-10.2 3.4-24.8 8.8-32.5 12.1-7.7 3.2-21.9 9.9-31.5 14.8-9.6 4.9-24.9 13.3-34 18.8-9.1 5.4-27.3 17.1-40.5 26.1-13.2 8.9-24.7 16.9-25.5 17.7-1.3 1.3-1.3 1.6 0.5 2.9 1.1 0.8 3.6 1.5 5.5 1.5 1.9-0.1 11.4 1.3 21 2.9 9.6 1.6 23.6 3.6 31 4.5 7.4 0.8 18.4 1.7 24.5 2.1 6 0.3 17.3 0.1 25-0.4 7.7-0.6 18-1.8 23-2.7 4.9-0.9 12.4-2.7 16.5-4.1 4.1-1.4 12.2-5 18-7.9 5.8-2.9 14.5-8.2 19.4-11.6 4.9-3.5 11.6-9.3 14.9-12.9 3.4-3.5 8.4-10.1 11.3-14.5 2.8-4.4 6.3-10.2 7.7-13 1.3-2.7 4.1-9.5 6.2-15 2-5.5 4.5-13.8 5.6-18.5 1-4.6 1.9-10.1 1.9-12.2v-3.8c-10.5 0.2-19.4 1.3-26.5 2.6zm-369.1 94.7c-2.6 2.9-6.2 7.5-8 10.2-1.9 2.8-4.3 7.5-5.5 10.5-1.2 3.1-2.3 8.9-2.6 13-0.4 5.2-0.1 9.5 1.1 13.8 0.9 3.4 2.8 8.6 4.2 11.5 1.5 2.9 5.4 8 8.8 11.3 3.3 3.3 9 8.1 12.6 10.6 3.6 2.6 9.2 6 12.5 7.7 3.3 1.7 10.5 4.3 16 5.7 8.5 2.2 12.2 2.6 24 2.7q14 0 22-1.7c4.4-0.9 11.6-3.3 16-5.4 4.4-2.1 10.9-5.8 14.5-8.2 3.6-2.4 9.2-6.9 12.5-10 3.3-3.1 7.4-8.3 9.2-11.6 1.8-3.2 4-9.2 4.8-13.4 1.1-5 1.4-9.2 1-13-0.4-3-1.5-7.7-2.5-10.5-0.9-2.7-3.2-7.4-5.2-10.5-1.9-3-6.1-8.3-9.4-11.8l-5.9-6.4c-7.8 4.8-14.7 7.8-20.5 9.7-5.8 1.9-15.2 4.2-21 5.1-7 1.1-13.6 1.5-20 1.1-5.2-0.3-12.7-1.2-16.5-2.1-3.9-0.8-10.2-2.5-14-3.9-3.9-1.3-10.3-4-14.3-6-3.9-2-7.6-3.7-8.1-3.7-0.5 0-3.1 2.4-5.7 5.3zm-46.4 36.1c-0.3 0.2-8.8 1.6-19 3.1-10.2 1.4-26.4 3-36 3.5-9.6 0.6-23.7 1-31.3 1h-13.7c-17.4 9-26.6 14.2-31.5 17.5-5 3.2-11.3 7.6-14 9.9-2.8 2.2-7.8 6.7-11.3 10.1-3.5 3.3-8.5 9-11.1 12.5-2.6 3.6-6.2 9-7.9 12-1.7 3.1-4.5 9.8-6.1 15-1.7 5.3-3.1 10.8-3.1 12.3 0 1.9 0.7 3 2.2 3.6 1.3 0.5 8.4 1.7 15.8 2.7 9.7 1.2 16.7 1.5 25 1.1 6.3-0.3 15.5-1.5 20.5-2.7 4.9-1.1 12.1-3.2 16-4.6 3.8-1.5 11.5-4.9 17-7.6 5.5-2.8 14-7.5 19-10.6 4.9-3.1 13.5-9 19-13.1 5.5-4.2 14-11.4 18.9-16.1 4.9-4.6 12.3-12.7 16.5-18 4.2-5.2 10.2-13.3 13.3-18 3.2-4.6 5.9-9.6 6-10.9 0.2-1.9-0.2-2.6-1.7-2.8-1.2-0.2-2.3-0.1-2.5 0.1zm215.4 1.4c-0.4 1.1 1.1 4.3 4.1 8.7 2.7 3.9 7.9 11.2 11.7 16.3 3.7 5.1 10.1 12.7 14 16.9 4 4.2 11.3 10.9 16.3 14.9 4.9 4 14.6 11.1 21.5 15.7 6.9 4.6 18.6 11.3 26 15 7.4 3.7 16.9 7.8 21 9.2 4.1 1.4 12 3.2 17.5 4 5.5 0.8 15.6 1.5 22.5 1.5 6.9 0 16.5-0.4 21.5-1 4.9-0.6 10-1.2 11.2-1.5 1.6-0.3 2.3-1.2 2.3-2.7 0-1.2-0.7-5.4-1.5-9.3-0.8-3.8-3-10.1-4.8-14-1.8-3.8-5.3-9.9-7.7-13.5-2.4-3.5-6.9-9.1-9.9-12.3-3.1-3.3-9.2-8.7-13.6-12.2-4.4-3.4-12.5-9.1-18-12.7-5.5-3.6-14.1-8.8-19-11.6l-9-5.2c-20.9 0-35.1-0.6-45-1.4-9.9-0.8-26.3-2.7-36.5-4-10.2-1.4-19.8-2.6-21.3-2.6-1.7 0-3 0.7-3.3 1.8zm-175.7 75.1c-3.3 3.7-8.7 10.7-12 15.6-3.4 5-7.7 12.7-9.8 17-2.1 4.4-4 9.1-4.3 10.3-0.5 2 0.1 2.5 7.1 5.2 4.3 1.5 11.6 4 16.3 5.4 4.7 1.4 12.3 3.5 17 4.7 4.7 1.1 14.1 3 21 4 6.9 1.1 19.2 2.3 27.5 2.6 9.3 0.4 19.5 0.2 27-0.6 6.6-0.7 16.5-1.9 22-2.7 5.5-0.8 12.7-2.1 16-2.9 3.3-0.9 12.7-3.8 21-6.5 8.2-2.7 15.8-5.5 16.8-6.2 1.7-1.2 1.6-1.7-1.2-9.3-1.7-4.4-4.7-10.7-6.7-14-1.9-3.2-6.1-9.3-9.1-13.5-3.1-4.1-7.2-9.1-9.2-11.2-2-2.1-4.1-3.8-4.6-3.8-0.6 0-4.6 1.8-9 3.9-4.4 2.2-11.7 5.1-16.3 6.5-4.5 1.5-12.4 3.3-17.5 4.1-5 0.9-14.4 1.5-20.7 1.5-6.3 0-15.8-0.6-21-1.5-5.2-0.8-13.8-2.8-19-4.4-5.2-1.7-13-4.8-17.4-6.9l-7.8-3.9zm160.2 78.3c-6.8 2.6-17.2 5.8-22.9 7.2-5.8 1.4-15.3 3.2-21 4-5.8 0.9-16.2 2.1-23 2.7-7.3 0.7-19.4 0.9-29 0.6-9.1-0.3-22.2-1.3-29-2.2-6.9-0.8-18.2-2.7-25-4.1-6.9-1.4-19.2-4.8-27.3-7.5-8.1-2.7-15.2-4.9-15.7-4.9-0.7 0-0.9 6.4-0.7 17.8q0.4 17.7 2 24.7l1.6 7c10.9 5.1 19.4 8.3 25.8 10.4 6.5 2.2 16 4.8 21.3 6 5.2 1.1 16 3 24 4.2 9.1 1.3 19.2 2.1 27.5 2.1 7.1 0 19-0.7 26.5-1.6 7.4-0.9 18.6-2.8 25-4.2 6.3-1.4 18-4.7 26-7.4 7.9-2.6 16.6-5.7 19.2-6.9 2.6-1.1 5-2.9 5.2-3.8 0.3-1 1.2-5.8 2-10.8 0.9-4.9 1.6-15.4 1.7-23.2 0-7.8-0.3-14.3-0.8-14.5-0.5-0.2-6.5 1.8-13.4 4.4zm-176.8 81.2c-0.1 0.3 1.5 3.4 3.5 6.9 2.1 3.4 6 9.6 8.7 13.7 2.8 4.1 8.4 11.8 12.5 17 4.1 5.2 14.2 16.3 22.5 24.5 8.7 8.6 20.2 18.8 26.9 23.8 6.5 4.8 12.1 8.7 12.5 8.7 0.4 0 3.7-2.1 7.3-4.6 3.5-2.6 10.7-8.2 16-12.4 5.2-4.2 15.3-13.7 22.4-21.1 7.1-7.4 17.1-19 22.2-25.9 5.1-6.9 11.6-16.5 14.4-21.5 2.7-4.9 4.8-9.1 4.5-9.2-0.3-0.2-2.9 0.8-5.8 2.1-2.9 1.3-10 3.6-15.7 5-5.8 1.5-19.5 3.8-30.5 5.2-17.6 2.3-22.5 2.6-40 2.1-12.3-0.3-25.5-1.3-34-2.5-7.7-1.1-18.8-3.2-24.5-4.7-5.8-1.5-12.6-3.5-15-4.4-2.5-1-5.3-2.2-6.1-2.6-0.9-0.4-1.7-0.4-1.8-0.1z"/></svg>