<svg version="1.2" xmlns="http://www.w3.org/2000/svg" viewBox="0 0 373.00000000000006 263" width="374" height="263"><style>.a{opacity:.66}</style><path fill-rule="evenodd" class="a" d="m237.7 8c0.2 0 0.5 0.1 0.7 0.2 0.2 0.2 3.6 2.2 7.5 4.5 4 2.3 8.7 5.1 10.6 6.2 1.8 1 4.3 2.5 5.6 3.2 1.2 0.7 3.3 1.9 4.6 2.6 1.3 0.8 3.9 2.2 5.6 3.3 1.8 1 3.9 2.3 4.9 2.8 0.9 0.6 3.1 1.8 4.9 2.8 1.8 1 4.8 2.7 6.6 3.7 1.9 1.1 4.9 2.8 6.8 3.8 1.9 1.1 4.6 2.6 6.1 3.5 1.5 0.9 3 1.8 3.7 2.3l-0.1 79.3-2 1.2c-1 0.7-3.5 2.1-5.4 3.2-1.9 1-5.1 2.8-7 4-2 1.1-4.5 2.5-5.6 3.2-1.2 0.6-3.3 1.9-4.7 2.7-1.5 0.8-4.6 2.7-7 4.1-2.4 1.4-5.8 3.5-7.7 4.5-1.9 1.1-4.5 2.6-5.9 3.4-1.3 0.8-3.3 1.9-4.4 2.5-1 0.6-4.9 2.9-8.6 4.9-3.7 2.1-7.3 4.2-7.9 4.5-1 0.6-1.3 0.7-1.6 0.5-0.1-0.1-0.5-0.3-0.8-0.5-0.3-0.1-0.8-0.5-1.2-0.7-0.4-0.2-2.3-1.4-4.2-2.5-2-1.1-5.3-3-7.3-4.2-2.1-1.2-5.1-2.9-6.8-3.9-1.6-0.9-4.1-2.4-5.6-3.2-1.4-0.9-4.2-2.5-6.2-3.7-2-1.2-4.3-2.4-5-2.8-0.8-0.4-2.4-1.3-3.5-2-1.2-0.7-3.7-2.1-5.6-3.2-1.9-1.1-3.8-2.2-4.1-2.4-0.3-0.2-0.9-0.5-1.4-0.7-0.4-0.3-2.6-1.6-5-2.9-2.3-1.4-4.4-2.6-4.6-2.7-0.2-0.1-1.5-0.9-5.7-3.4l0.1-79.3 2.1-1.2c1.1-0.7 3.7-2.2 5.7-3.4 2.1-1.2 5.9-3.4 8.5-4.9 2.7-1.5 5-2.8 5.3-3 0.3-0.1 2.1-1.2 4-2.3 1.9-1.1 4.7-2.7 6.3-3.6 1.5-0.9 3.8-2.2 5.2-3 1.3-0.8 5-2.9 8.3-4.8 3.2-1.8 7.3-4.1 9-5.1 1.7-1 3.8-2.3 4.6-2.8 0.9-0.5 2.9-1.7 4.4-2.6 1.5-0.9 2.8-1.6 2.9-1.6 0.1 0 0.2-0.1 0.4-0.2 0.1-0.2 0.3-0.3 0.5-0.3zm-0.4 5.4c-0.3 0.2-2.1 1.2-3.9 2.3-1.9 1.1-3.9 2.3-4.5 2.7-0.5 0.3-2.6 1.5-4.6 2.6-2 1.2-6.2 3.5-9.3 5.3-3.1 1.8-7.8 4.5-10.6 6.1-2.7 1.6-5.7 3.3-6.6 3.8-0.8 0.6-1.6 1-1.6 1-0.1 0-0.3 0.2-0.6 0.3-0.2 0.2-1.8 1.1-3.5 2-1.7 1-3.6 2-4.2 2.4-0.7 0.3-1.9 1-2.8 1.5-0.8 0.4-2.3 1.3-3.2 1.9-0.9 0.6-2.9 1.7-4.3 2.6l-2.7 1.5v74.2c6.1 3.5 8.8 5.1 10 5.7 1.2 0.7 3.1 1.8 4.3 2.5 1.2 0.7 2.5 1.5 2.8 1.6 0.3 0.2 2.2 1.3 4.2 2.5 1.9 1.1 4 2.3 4.5 2.6 0.5 0.3 2 1.2 3.4 2 1.3 0.7 4.6 2.6 7.3 4.2 2.6 1.5 6.2 3.6 8 4.6 1.7 1 5.8 3.4 9 5.2 3.3 1.9 6.8 3.9 7.7 4.4 1.5 1 1.8 1.1 2.1 0.9 0.3-0.1 2.7-1.5 5.4-3.1 2.8-1.6 5.7-3.3 6.4-3.7 0.8-0.4 4.9-2.8 9.2-5.2 4.3-2.5 9.3-5.4 11.1-6.5 1.8-1 4.6-2.7 6.2-3.6 1.6-0.9 3.6-2 4.4-2.5 0.9-0.6 3.2-1.9 5.2-3.1 2-1.1 3.7-2.1 3.8-2.2 0.1 0 2.2-1.3 4.7-2.7 2.5-1.4 4.9-2.8 5.4-3.1l0.9-0.5v-74.2c-0.8-0.4-1.7-0.9-2.5-1.4-0.8-0.4-2.2-1.3-3.1-1.8-0.9-0.5-3.4-1.9-5.6-3.1-2.1-1.2-5.4-3-7.2-4.1-1.8-1-4.5-2.6-6.1-3.5-1.5-0.9-4.9-2.8-7.4-4.2-2.5-1.5-5.4-3.2-6.5-3.8-1.1-0.7-4.7-2.8-8.1-4.7-3.3-1.9-6.8-3.9-7.6-4.3-0.9-0.5-2.8-1.7-4.3-2.6-1.5-0.9-3.1-1.9-3.6-2.3l-1-0.6zm10 19.3c3.1 0 5.4 0.1 6.4 0.2 0.8 0.1 2.5 0.4 3.7 0.7 1.3 0.2 2.9 0.6 3.7 0.8 0.8 0.3 1.7 0.6 2.1 0.8 0.6 0.3 0.6 0.3 0.5 1.1 0 0.5-0.2 1.7-0.4 2.7-0.2 1-0.4 2-0.4 2.2 0 0.2-0.3 1.2-0.6 2.1-0.3 1-0.9 2.8-1.4 3.9-0.5 1.2-1.3 3-1.8 4-0.5 0.9-1.3 2.2-1.6 2.8-0.4 0.5-1.3 1.8-2.1 2.8-0.8 1.1-1.8 2.4-2.3 2.9-0.5 0.6-1.3 1.4-1.8 1.9-0.5 0.5-0.9 0.9-0.9 1 0 0 0.7 0.1 1.6 0.1 0.8 0 2.6 0.2 3.8 0.3 1.3 0.2 3.2 0.6 4.4 0.9 1.1 0.4 2.7 0.9 3.5 1.3 0.9 0.4 2.3 1.1 3.2 1.6 0.9 0.5 2.4 1.5 3.3 2.2 1 0.7 2.5 1.9 3.4 2.8 0.9 0.8 2.2 2.2 2.9 3 0.7 0.8 1.8 2.2 2.4 3.1 0.6 0.9 1.6 2.6 2.1 3.7 0.5 1.2 1.3 3.1 1.7 4.4 0.5 1.2 0.8 2.5 0.9 2.7 0 0.2 0.2 1 0.3 1.7 0.2 0.7 0.3 1.5 0.4 1.8 0 0.4 0.1 2.3 0.2 4.3 0 2.8 0 4.2-0.2 5.9-0.2 1.2-0.5 3.2-0.9 4.4-0.3 1.2-0.8 2.9-1.2 3.9-0.3 0.9-1 2.4-1.4 3.4-0.5 0.9-1.3 2.3-1.8 3.1-0.4 0.8-1.4 2.2-2 3.1-0.7 0.9-2 2.5-3 3.5-1 1.1-2.5 2.5-3.2 3.2-0.8 0.6-1.8 1.5-2.3 1.8-0.5 0.4-1.8 1.4-3 2.1-1.2 0.8-3.3 2-4.7 2.7-1.4 0.7-3.6 1.6-5 2.1-1.3 0.5-3.5 1.2-4.7 1.5-1.3 0.3-2.7 0.6-3.1 0.6-0.4 0.1-1.2 0.2-1.8 0.3-0.6 0.2-2.7 0.2-5.2 0.2-4 0-4.5 0-7.4-0.5-1.7-0.3-4.1-0.8-5.2-1.1-1.1-0.3-2.8-0.9-3.7-1.2-1-0.4-3-1.3-4.4-2-1.5-0.7-3.6-1.9-4.7-2.6-1.1-0.6-2.7-1.8-3.7-2.5-0.9-0.7-2.5-2.1-3.5-3.1-1-0.9-2.6-2.5-3.5-3.5-0.9-1-2.2-2.5-2.9-3.5-0.7-0.9-1.8-2.5-2.4-3.5-0.7-0.9-1.8-3-2.5-4.5-0.7-1.5-1.6-3.3-1.9-4.1-0.3-0.8-0.8-2.4-1.1-3.5-0.3-1.1-0.7-2.9-0.9-3.9-0.2-1-0.5-2.9-0.6-4.1-0.2-1.4-0.3-3.7-0.3-6.3 0-2.2 0.1-4.7 0.2-5.6 0.1-0.8 0.2-1.8 0.2-2.1 0.1-0.4 0.2-1 0.2-1.4 0.1-0.4 0.2-1.3 0.4-2 0.1-0.7 0.4-2 0.6-3 0.3-0.9 0.8-2.8 1.3-4.2 0.5-1.3 1.2-3.3 1.6-4.2 0.5-1 1.2-2.6 1.7-3.5 0.6-1 1.6-2.7 2.3-3.9 0.7-1.1 1.9-2.8 2.6-3.8 0.8-1 2-2.5 2.8-3.5 0.9-0.9 2.3-2.4 3.3-3.3 1-1 2.6-2.4 3.7-3.3 1.1-0.8 2.4-1.8 3-2.2 0.5-0.4 1.5-1.1 2.2-1.5 0.6-0.4 1.8-1.1 2.5-1.5 0.8-0.4 2.1-1.1 2.9-1.5 0.9-0.4 2.3-1 3.2-1.4 1-0.4 2.7-1 3.9-1.4 1.1-0.4 3-0.9 4.1-1.2 1.1-0.2 2.8-0.6 3.7-0.7 0.9-0.1 2.1-0.3 2.6-0.4 0.6-0.1 3.2-0.1 6-0.1zm-1.6 4.3c-0.1 0-1.4 0.2-2.9 0.3-1.6 0.2-3 0.3-3.2 0.3-0.2 0.1-1 0.2-1.9 0.4-0.8 0.1-2.2 0.5-3.1 0.7-0.9 0.2-2.6 0.7-3.9 1.1-1.3 0.5-3.1 1.2-4.2 1.6-1 0.5-2.7 1.4-3.9 2.1-1.1 0.6-2.9 1.8-4 2.6-1 0.7-2.5 1.8-3.2 2.4-0.7 0.6-2.4 2.2-3.8 3.6-1.4 1.4-3.2 3.4-4.1 4.5-0.8 1.1-2 2.8-2.7 3.8-0.7 1-1.6 2.6-2.1 3.5-0.5 0.9-1.2 2.5-1.7 3.6-0.5 1.2-1.2 3.1-1.6 4.3-0.4 1.2-0.8 2.6-0.9 3.1-0.2 0.5-0.3 1.2-0.3 1.4-0.1 0.2-0.2 0.9-0.3 1.5-0.2 0.9-0.2 1.3 0 2.2 0.1 0.6 0.6 2.2 1 3.4 0.4 1.4 1.2 3.1 1.8 4.3 0.5 1 1.4 2.5 1.9 3.2 0.4 0.7 1.2 1.7 1.6 2.3 0.5 0.5 1.3 1.5 1.9 2 0.6 0.6 1.4 1.3 1.7 1.6 0.3 0.2 1.1 0.8 1.8 1.3 0.6 0.5 1.8 1.2 2.7 1.7 0.8 0.4 2 1 2.7 1.3 0.6 0.2 1.9 0.6 2.7 0.9 0.8 0.2 1.8 0.5 2.1 0.5 0.4 0.1 1.9 0.2 3.4 0.2 2.1 0.1 3.3 0 4.4-0.2 0.8-0.1 1.5-0.3 1.5-0.3 0 0-0.3-0.6-0.8-1.4-0.5-0.7-1.1-1.8-1.4-2.3-0.2-0.5-0.6-1.3-0.8-1.8-0.2-0.4-0.5-1.4-0.7-2.1-0.2-0.7-0.4-1.6-0.4-2.1-0.1-0.5-0.2-2.6-0.1-4.7 0-3.3 0-4 0.3-5.3 0.2-0.9 0.6-2.1 0.9-2.7 0.2-0.7 0.7-1.8 1-2.5 0.4-0.7 1-1.8 1.4-2.5 0.4-0.6 1.4-1.8 2-2.6 0.7-0.8 1.9-2 2.6-2.6 0.7-0.7 1.8-1.7 2.5-2.2 0.7-0.5 2.3-1.5 3.5-2.1 1.2-0.7 2.7-1.6 3.2-2 0.6-0.3 1.6-1.1 2.2-1.6 0.7-0.5 1.8-1.5 2.6-2.1 0.7-0.7 1.9-2 2.7-2.8 0.8-0.9 1.9-2.2 2.4-2.8 0.5-0.7 1.3-1.9 1.8-2.7 0.5-0.8 1.3-2.2 1.7-3.2 0.5-1 1.2-2.5 1.6-3.4 0.3-0.9 0.8-2.5 1.1-3.5 0.3-1 0.5-2.1 0.5-2.4l0.1-0.5c-2.5-0.4-3.8-0.6-4.4-0.7-0.6-0.1-1.3-0.2-1.7-0.3-0.3 0-1.6-0.1-2.9-0.2-1.3-0.1-2.8-0.2-3.3-0.2-0.4 0-0.9 0-1 0.1zm3.7 30.2c-1.2 0.1-2.7 0.3-3.4 0.5-0.7 0.2-1.9 0.5-2.6 0.8-0.8 0.2-2.1 0.8-3 1.3-0.9 0.4-2.1 1-2.6 1.4-0.5 0.3-1.6 1.4-2.4 2.2-0.9 0.9-2 2.1-2.4 2.8-0.5 0.7-1.2 1.8-1.6 2.5-0.4 0.7-0.9 2-1.3 3-0.3 1-0.7 2.6-0.8 3.6-0.2 1-0.3 2.3-0.3 2.9 0 0.6 0.1 1.8 0.3 2.8 0.1 0.9 0.4 2.3 0.6 3 0.2 0.8 0.5 1.7 0.7 2 0.1 0.3 0.5 1.1 0.9 1.7 0.3 0.6 1.2 1.7 2 2.5 0.7 0.8 1.9 1.9 2.6 2.4 0.7 0.5 1.9 1.3 2.7 1.7 0.7 0.4 2 1 2.9 1.2 0.9 0.3 2 0.5 2.8 0.5 0.7 0 1.6-0.1 2-0.1 0.4-0.1 1-0.3 1.4-0.3 0.3-0.1 1.1-0.3 1.8-0.5 0.7-0.3 1.8-0.8 2.5-1.2 0.6-0.4 1.6-1.2 2.2-1.7 0.6-0.6 1.3-1.3 1.6-1.7 0.2-0.4 0.7-1.2 1-1.7 0.3-0.6 0.6-1.4 0.7-1.8 0.1-0.4 0.2-0.9 0.3-1.1 0-0.2 0.1-1 0.1-1.8 0-0.9-0.1-1.8-0.3-2.4-0.2-0.6-0.5-1.4-0.7-1.8-0.2-0.4-0.8-1.2-1.2-1.7-0.5-0.5-1.2-1.2-1.7-1.5-0.4-0.3-1.2-0.6-1.7-0.8-0.4-0.2-1.3-0.4-2-0.4-0.9-0.2-1.3-0.2-2.5 0.1-0.8 0.2-1.7 0.6-2.1 0.8-0.4 0.2-0.9 0.6-1.2 1-0.3 0.3-0.8 1-1 1.4-0.2 0.5-0.5 1.3-0.6 1.8-0.1 0.8-0.1 1.3 0.1 2.2 0.1 0.6 0.4 1.4 0.6 1.8 0.2 0.4 0.6 0.9 0.9 1.1 0.3 0.2 1 0.7 1.7 1 0.6 0.2 1.1 0.6 1.1 0.6 0 0.1-0.2 0.4-0.5 0.6-0.3 0.3-0.9 0.6-1.4 0.7-0.6 0.2-0.9 0.3-1.7 0.1-0.5-0.1-1.3-0.3-1.6-0.5-0.4-0.2-1-0.6-1.4-1.1-0.4-0.4-1-1.2-1.3-1.7-0.2-0.6-0.6-1.5-0.7-2.1-0.1-0.6-0.2-1.5-0.2-2 0-0.5 0.1-1.4 0.2-2 0.2-0.7 0.6-1.7 0.9-2.4 0.3-0.7 1-1.7 1.5-2.2 0.5-0.6 1.2-1.4 1.6-1.7 0.4-0.3 1.1-0.7 1.5-0.9 0.3-0.2 1.2-0.5 1.8-0.7 1-0.3 1.6-0.4 3.3-0.4 1.5 0 2.5 0.1 3.3 0.3 0.6 0.1 1.6 0.5 2.2 0.8 0.6 0.3 1.5 0.8 2.1 1.2 0.6 0.4 1.5 1.2 2 1.8 0.5 0.5 1.3 1.4 1.6 2 0.4 0.5 0.9 1.5 1.2 2.1 0.3 1 0.6 1.3 2.2 2.9 1 1 2.2 2.3 2.8 3 0.5 0.7 1.3 2.1 1.8 3 0.5 0.9 1.1 2.6 1.5 3.7 0.3 1 0.6 2.2 0.7 2.5 0 0.3 0.1 1.1 0.2 1.6 0.1 0.6 0.2 2.1 0.2 3.4 0.1 1.3 0 2.9-0.1 3.5 0 0.7-0.1 1.2-0.1 1.3-0.1 0.1-0.2 0.6-0.2 1.1-0.1 0.5-0.3 1.4-0.4 1.9-0.1 0.6-0.4 1.7-0.7 2.4-0.2 0.8-0.7 1.9-1 2.6-0.3 0.7-0.6 1.3-0.5 1.3 0 0.1 0.5-0.4 1.2-1.1 0.6-0.6 1.7-1.8 2.4-2.6 0.7-0.9 1.7-2.2 2.2-2.9 0.5-0.8 1.4-2.2 1.9-3.2 0.6-1.1 1.4-2.9 1.9-4 0.5-1.2 1-2.9 1.3-3.8 0.2-0.9 0.5-2.4 0.7-3.4 0.2-1.2 0.3-3 0.3-5 0-2.2-0.1-3.5-0.3-4.6-0.2-0.9-0.6-2.6-0.9-3.8-0.3-1.1-0.8-2.6-1-3.2-0.3-0.6-0.9-1.9-1.3-2.8-0.5-0.9-1.4-2.5-2-3.4-0.6-1-1.7-2.3-2.6-3.2-0.9-0.9-2.3-2.2-3.2-2.9-0.9-0.7-2.2-1.6-2.9-2.1-0.7-0.4-2-1.1-2.9-1.6-0.9-0.4-2.3-1-3.3-1.4-0.9-0.3-2.1-0.6-2.6-0.8-0.5-0.1-1.1-0.2-1.3-0.2-0.2 0-0.9-0.1-1.7-0.2-0.7 0-1.6-0.1-2-0.2-0.4 0-1.7 0.1-2.8 0.2zm-52.7 24.1c0 0.9 0.3 2.9 0.5 4.4 0.2 1.5 0.6 3.4 0.7 4.2 0.2 0.9 0.6 2.3 0.9 3.2 0.3 0.9 0.7 2.1 0.9 2.7 0.3 0.5 0.8 1.7 1.3 2.6 0.5 0.9 1.1 2.2 1.5 2.8 0.4 0.7 1.1 1.7 1.6 2.4 0.5 0.7 1.3 1.7 1.8 2.2 0.4 0.5 1.2 1.3 1.8 1.8 0.5 0.4 1.5 1.2 2.1 1.6 0.6 0.4 1.7 1 2.5 1.3 0.7 0.4 2.4 1 3.8 1.5 1.3 0.4 2.8 0.8 3.1 0.9 0.4 0 1.3 0.2 2.1 0.3 0.7 0.1 2.9 0.2 4.9 0.2 3.5 0 3.6 0 5.8-0.6 1.2-0.3 2.8-0.8 3.6-1.2 0.8-0.3 2-0.9 2.6-1.2 0.6-0.4 1.8-1.3 2.7-2 0.9-0.7 2-1.8 2.5-2.3 0.6-0.6 1.3-1.5 1.7-2 0.4-0.6 1-1.6 1.4-2.3 0.3-0.7 0.7-1.4 0.7-1.4 0-0.1-1.2-0.2-2.5-0.2-1.6 0-2.9 0-3.6-0.2-0.5-0.1-1.7-0.6-2.7-1-0.9-0.4-2.2-1-2.8-1.4-0.6-0.3-1.5-0.9-2-1.3l-0.9-0.6c-2 0.6-3.1 0.9-3.8 1-0.6 0.2-1.9 0.4-2.9 0.5-0.9 0.1-2.3 0.2-3.2 0.1-0.8-0.1-1.8-0.1-2.1-0.2-0.3 0-1.1-0.2-1.7-0.3-0.6-0.1-1.8-0.3-2.6-0.6-0.8-0.2-2.2-0.7-3.1-1-0.9-0.4-2.4-1-3.1-1.5-0.8-0.4-2.3-1.3-3.2-2-0.9-0.7-2.5-2-3.5-3-1-1-2.2-2.3-2.7-3-0.5-0.6-1.5-2-2.1-2.9-0.7-1-1.4-2.1-1.6-2.5-0.2-0.4-0.4-0.8-0.4-0.8-0.1 0-0.1 0.8 0 1.8zm65.2 7.1c-0.3 1-0.9 2.3-1.3 3-0.4 0.7-1.1 1.7-1.5 2.2-0.3 0.4-1.2 1.3-1.8 1.9-0.7 0.6-1.7 1.4-2.4 1.9-0.7 0.4-1.4 0.8-1.7 0.9-0.4 0.2-0.6 0.4-0.8 1.2-0.2 0.6-0.6 1.7-0.9 2.4-0.4 0.8-1 2-1.4 2.7-0.4 0.6-1.2 1.8-1.8 2.5-0.6 0.8-1.9 2.2-2.9 3.1-0.9 0.9-2.4 2.2-3.3 2.8-0.9 0.7-2.6 1.6-3.7 2.2-1.1 0.5-2.9 1.3-4 1.6-1 0.3-2.1 0.6-2.4 0.7-0.3 0-1.2 0.2-2.1 0.3-0.9 0.1-2.5 0.1-4.2 0-1.5 0-3.1-0.1-3.7-0.2-0.5 0-1.7-0.2-2.8-0.5-1-0.2-2-0.5-2.2-0.6q-0.4-0.2 0.1 0.2c0.2 0.2 1 0.7 1.6 1.1 0.7 0.4 2.4 1.3 3.9 2 1.5 0.6 3.3 1.4 4 1.7 0.7 0.3 2 0.7 2.8 0.9 0.9 0.2 1.7 0.5 2 0.5 0.2 0 0.8 0.2 1.3 0.3 0.6 0.1 1.4 0.2 2 0.3 0.5 0.1 1.9 0.3 3 0.4 1.2 0.1 3.2 0.1 4.6 0.1 1.4-0.1 3.5-0.3 4.6-0.5 1.1-0.2 2.7-0.5 3.6-0.8 0.8-0.2 2.2-0.7 3-1.1 0.9-0.3 2.2-1 2.9-1.4 0.7-0.5 2-1.3 2.7-2 0.8-0.6 1.9-1.7 2.5-2.4 0.6-0.8 1.4-1.9 1.8-2.6 0.3-0.6 0.9-1.8 1.2-2.5 0.4-0.8 0.8-2.1 1.1-3.1 0.3-0.9 0.7-2.3 0.8-3.2 0.2-0.8 0.4-2.2 0.5-3.1 0-0.9 0-2.5-0.1-3.6-0.1-1.1-0.4-2.6-0.6-3.5-0.2-0.8-0.7-2.1-0.9-2.9-0.3-0.7-0.8-1.8-1.2-2.4-0.4-0.5-0.9-1.3-1.2-1.6l-0.5-0.6z"/><path  d="m52 258l-12.3-20.2c7.3-3.2 11.4-10 11.4-19.3 0-13.6-8.7-21.9-22.8-21.9h-22.1v61.4h10v-17.9h12.1c0.7 0 1.4 0 2-0.1l11 18zm-11-39.5c0 7.7-4.5 12.2-13.2 12.2h-11.7v-24.4h11.7c8.7 0 13.2 4.4 13.2 12.2zm22.1 29.9v-16.9h25.9v-9.4h-25.9v-15.9h29.2v-9.6h-39.1v61.4h40.2v-9.6zm48.7 10.5c14.7 0 21.7-8.4 21.7-18.3 0-22.5-31.8-14-31.8-27.1 0-4.6 3.3-8.3 11.6-8.3 4.7 0 10 1.6 14.8 4.8l3.1-8.8c-4.6-3.5-11.4-5.5-17.8-5.5-14.7 0-21.6 8.5-21.6 18.4 0 22.8 31.8 14.1 31.8 27.3 0 4.6-3.5 8-11.8 8-6.6 0-13.4-2.8-17.7-6.7l-3.5 8.8c4.5 4.4 12.8 7.4 21.2 7.4zm32.3-10.5v-16.9h25.9v-9.4h-25.9v-15.9h29.2v-9.6h-39.2v61.4h40.3v-9.6zm72.2 9.6h10.4l-24.2-61.4h-9.8l-24.2 61.4h10.3l5.3-14.2h26.8zm-28.8-23.2l10-26.8 10.1 26.8zm82.5 23.2l-12.3-20.2c7.3-3.2 11.4-10.1 11.4-19.3 0-13.6-8.7-21.9-22.8-21.9h-22.1v61.4h10v-17.9h12.1c0.7 0 1.3 0 2-0.1l11 18zm-11-39.5c0 7.7-4.5 12.2-13.2 12.2h-11.7v-24.4h11.7c8.7 0 13.2 4.4 13.2 12.2zm37 40.4c8.8 0 16.3-3.6 21.3-10.3l-6.4-7c-3.9 4.9-8.8 7.3-14.4 7.3-11.1 0-19.1-9-19.1-21.6 0-12.6 8-21.6 19.1-21.6 5.6 0 10.5 2.4 14.4 7.2l6.4-6.9c-5-6.7-12.5-10.3-21.2-10.3-16.5 0-28.8 13.3-28.8 31.6 0 18.3 12.3 31.6 28.7 31.6zm59.9-62.3v25.4h-27.8v-25.4h-9.9v61.4h9.9v-26.3h27.8v26.3h9.9v-61.4z"/><path  d="m18.8 178h2.7l11.2-63.9 11 63.9h2.8l11.2-71h-2.9l-9.7 65-10.9-65h-2.9l-11.1 64.6-9.7-64.6h-2.7zm45.9 0h2.6v-71h-2.6zm13-71v71h17.6v-3.8h-15v-67.2zm35.3 0h-11.3v71h11.3c13.8 0 21.4-13.1 21.4-35.4 0-22.2-7.6-35.6-21.4-35.6zm-8.7 67.2v-63.3h8.7c12.5 0 18.7 12.1 18.7 31.7 0 19.5-6.2 31.6-18.7 31.6z"/></svg>