<svg version="1.2" xmlns="http://www.w3.org/2000/svg" viewBox="0 0 1024 1024" width="1024" height="1024"><style>.a{fill:#202730}</style><path fill-rule="evenodd" class="a" d="m611.6 184.5l4.9 2.5c3.2 1.7 6.1 4.2 8 7 1.8 2.6 3.6 7.1 4.3 10.5 0.8 3.8 1.2 15.1 1.2 54.5l137.6 0.5 4.2 2.8c2.3 1.5 5.4 4.6 9.7 11.1l0.5 70.6h-267.3c-213.4 0-267.7-0.3-272.2-2.6v-30.9c0-28.4 0.2-31.4 2-36 1-2.7 3.3-6.5 5-8.4 1.6-1.9 4.8-4.2 7-5.2 3.7-1.7 8.4-1.9 138.5-1.9v-24.5c0-14 0.5-26.8 1.1-29.7 0.6-2.9 2.2-7.2 3.5-9.5 1.3-2.4 3.9-5.3 5.6-6.5 1.8-1.2 4.9-2.8 6.8-3.5 2.7-0.9 25.5-1.2 199.6-0.8zm-98.4 193.6c169.1-0.1 231.4 0.2 233 1 1.3 0.6 3.4 2.1 4.7 3.3 1.3 1.1 2.7 3.1 3.2 4.4 0.5 1.3 0.3 14.3-0.6 33-0.8 16.9-2.2 43.5-3 59.2-0.8 15.7-2 39.1-2.5 52-0.5 12.9-1.7 36.5-2.5 52.5-0.8 16-2.2 42.7-3 59.5-0.8 16.8-2 40.6-2.5 53-0.5 12.4-1.2 25.6-1.5 29.5-0.3 3.9-1 17.8-1.6 31-0.5 13.2-1.7 27.1-2.5 31-0.8 3.9-2.8 9.5-4.4 12.5-1.7 3-4.9 7.8-7.3 10.5-2.4 2.8-6.8 6.7-9.8 8.8-3 2-8.6 5-19.4 9.2l-177.8 0.3c-155 0.2-178.5 0-184.2-1.3-3.6-0.8-9.3-2.9-12.8-4.6-3.9-2-8.8-5.8-13.2-10.3-3.9-3.9-8.5-9.8-10.2-13.1-1.7-3.3-3.7-8-4.2-10.5-0.6-2.5-1.8-18.5-2.6-35.5-0.8-17-1.9-38.4-2.5-47.5-0.5-9.1-1.7-31.4-2.5-49.5-0.8-18.1-2.4-51.5-3.5-74-1.1-22.5-2.9-59.7-4-82.5-1.1-22.8-2.7-54.9-3.5-71.2-0.8-16.4-1.5-32.7-1.5-36.3 0-5.3 0.4-7 2.4-9.5 1.3-1.6 3.9-3.4 5.7-3.9 2-0.5 97.7-1 234.2-1zm-74.3-119.1h147v-31h-147zm-123.5 171.8c0.3 4.8 1.2 22 2 38.2 0.8 16.2 1.9 38.5 2.5 49.5 0.5 11 1.7 33.5 2.5 50 0.8 16.5 2.4 48.2 3.5 70.5 1.1 22.3 2.7 53.8 3.5 70 0.8 16.2 1.9 38.3 2.5 49 0.8 16.6 1.2 19.9 2.8 22 1 1.4 3 3.1 4.3 3.7 1.9 1 39.7 1.3 173.4 1.3 133.7 0 171.5-0.3 173.4-1.3 1.3-0.6 3.3-2.3 4.3-3.7 1.7-2.1 2.1-5.7 3.3-25.5 0.8-12.6 2.1-39 3-58.5 0.8-19.5 2.2-47.9 3-63 0.8-15.1 2.4-46.6 3.5-70 1.1-23.4 2.9-60.7 4-83 1.1-22.3 2.2-44.4 2.5-49.3l0.5-8.7h-395.2zm125.1 41.3c2.2 0 6.3 1.1 9.2 2.5 3.6 1.7 6.2 3.8 10.8 10.8l0.5 228.1-2.3 4.5c-1.6 3.1-3.9 5.5-7.3 7.5-2.9 1.8-6.8 3.2-9.4 3.4-2.5 0.2-6.3-0.2-8.5-0.9-2.2-0.7-5.5-2.7-7.4-4.4-1.9-1.7-4.3-4.8-7.6-11.1v-224l2.5-4.9c1.4-2.7 3.8-5.8 5.5-6.9 1.6-1.2 4.6-2.6 6.5-3.3 1.9-0.7 5.3-1.3 7.5-1.3zm143.5 0c1.9 0 5.3 0.5 7.5 1.2 2.2 0.7 5.8 3 8 5.2 2.2 2.2 4.6 5.9 5.2 8 1 3.1 1.3 30.7 1.3 114 0 69.8-0.4 111.4-1 113.8-0.6 2.1-2.5 5.4-4.3 7.4-1.8 2-5 4.5-7.2 5.5-2.2 1-5.8 1.8-8 1.8-2.2 0-5.6-0.4-7.5-0.9-1.9-0.6-5.3-2.5-7.4-4.3-2.2-1.8-4.8-5-5.8-7.3-1.7-3.7-1.8-10.3-1.8-229l2.3-4.4c1.2-2.4 3.5-5.3 5.2-6.4 1.6-1.2 4.6-2.6 6.5-3.3 1.9-0.7 5.1-1.3 7-1.3z"/></svg>