<svg version="1.2" xmlns="http://www.w3.org/2000/svg" viewBox="0 0 1024 1024" width="1024" height="1024"><style>.a{fill:#1e2630}</style><path fill-rule="evenodd" class="a" d="m375 174c-4 1.3-6.8 3.2-10 6.7-2.5 2.7-5.1 6.6-5.7 8.8-1 3-1.3 19.9-1.3 66.8v62.7h43v-103h395v396c-60.1 0.4-84.6 0.5-93.3 0.5h-15.7c-0.1 6.2-0.3 9.1-0.5 10.5-0.1 1.4-0.4 9-0.6 17l-0.4 14.5 136-0.6c9.2-4.3 11.3-6.1 13.5-9.7 1.7-2.6 3.5-6.3 4-8.2 0.6-2.2 1-84.8 1-223.3v-219.7c-5.7-10.9-7.8-13.3-11.5-15.8-2.8-1.8-6.6-3.7-8.5-4.2-2.1-0.6-88-1-221.5-1-211.1 0.1-218.2 0.1-223.5 2zm-172.2 175.9c-1.5 0.5-4 1.5-5.5 2.4-1.5 0.8-4.2 3-6 4.9-1.7 1.8-3.8 5.1-4.7 7.3-1.5 3.6-1.6 23.1-1.6 215.5 0 131.6 0.4 212.8 1 215 0.5 1.9 2.6 5.5 4.7 7.9 2.1 2.4 5.6 5.3 7.8 6.5l4 2.1 432.5 0.5c8.1-3.5 11.9-6.3 13.9-8.6 2-2.2 4.1-6.1 4.8-8.7 1-3.7 1.3-49.9 1.3-215 0-163.8-0.3-211.1-1.3-214.1-0.6-2.1-2.8-5.7-4.7-7.9-1.9-2.2-5.3-4.9-7.5-6.1l-4-2.1c-334.8-0.3-433.2 0-434.7 0.4z"/></svg>