<svg version="1.2" xmlns="http://www.w3.org/2000/svg" viewBox="0 0 1024 1024" width="1024" height="1024"><style>.a{opacity:1;fill:#212c3a}</style><path fill-rule="evenodd" class="a" d="m691.5 123.5c-3.3 0.7-8 2.1-10.5 3.1-2.5 1-6.3 2.8-8.5 4.1-2.2 1.2-6.5 4.3-9.5 6.8-3 2.6-17.9 16.9-33 31.8-15.1 14.9-55.6 55-90 89.2-34.4 34.1-125.9 125.2-203.4 202.5-77.5 77.3-141.3 141.6-141.8 143-0.6 1.4-3.2 11-5.9 21.5-2.7 10.5-6.8 26-9 34.5-2.3 8.5-4.2 16.2-4.4 17-0.2 0.8-3.7 14.8-7.9 31-4.2 16.2-11 42.5-15.1 58.5-4.1 16-9.5 36.6-12 46-2.5 9.4-4.8 20.4-5.2 24.5-0.6 6.8-0.4 8 1.9 13 1.4 3 4.3 7 6.4 8.8 2.2 1.8 6.4 4 9.4 4.9 3.7 1 7.6 1.4 12 1 3.6-0.2 14.1-2.8 23.5-5.6 9.4-2.8 20.6-6.2 25-7.6 4.4-1.3 14.1-4.2 21.5-6.4 7.4-2.2 21.2-6.2 30.5-9 9.3-2.7 41.3-12.3 71-21.1 29.7-8.9 55.8-17.2 58-18.5 2.2-1.3 104.3-102.9 226.9-225.7 122.6-122.8 226.7-227.6 231.4-232.8 4.6-5.2 10.2-12.4 12.3-16 2-3.6 4.8-9.6 6.1-13.5 2-6 2.3-9 2.3-21 0-10.4-0.5-15.7-1.8-20.5-1-3.6-3.3-10.1-5-14.5-1.8-4.4-6-12.5-9.2-18-3.2-5.5-9.6-14.9-14.2-21-4.5-6.1-13.5-16.6-20-23.5-6.5-6.9-16.5-16.9-22.3-22.3-5.8-5.4-15.7-13.7-22.1-18.5-6.4-4.8-16.1-11-21.5-13.9-5.5-2.8-14.2-6.5-19.4-8.1-5.2-1.7-13-3.5-17.2-4.1-4.3-0.6-11.3-1.1-15.5-1-4.3 0-10.5 0.7-13.8 1.4zm13.5 40.5c-3 0.4-7.5 1.6-10 2.8-2.8 1.3-12.5 9.7-25.7 22.1-11.7 11.1-21.3 20.4-21.3 20.8-0.1 0.5 30.6 31.4 68 68.8 37.5 37.4 68.4 68.1 68.8 68.3 0.4 0.1 9.1-8 19.3-18 16.4-16.2 19-19.2 22.3-25.8 2.7-5.4 3.9-9.3 4.3-14 0.3-3.6 0-9-0.6-12-0.7-3-2.9-9.1-5-13.5-2.2-4.4-7.6-13.2-12.1-19.5-4.5-6.3-12.4-16.2-17.5-22-5.2-5.8-12.9-13.9-17.2-18.1-4.3-4.1-11-10.2-14.8-13.5-3.8-3.4-9.5-7.9-12.5-10.1-3-2.2-8.9-5.9-13-8.2-4.1-2.3-10.4-5.1-14-6.1-3.6-1-8.1-2-10-2.2-1.9-0.3-6-0.1-9 0.2zm-236.7 224.8c-81.9 81.8-164.7 164.6-183.9 184l-34.9 35.3c93.6 93.3 124.5 123.8 129.1 127.9 4.7 4.1 8.8 7.6 9.2 7.8 0.4 0.1 83.3-82.3 184.2-183.2l183.5-183.4c-106.2-106.3-137.3-137.2-137.6-137.2-0.4 0-67.7 66.9-149.6 148.7zm-246.6 264.1c-1.5 5.9-9.6 37.1-18 69.4l-15.2 58.7c18.6 18.9 25.4 25.1 27 26.1 2.9 1.7 3.3 1.7 9 0 3.3-1 30.1-9 59.5-17.8 29.4-8.8 56.9-17 61-18.2 4.1-1.1 7.3-2.2 7-2.3-0.3-0.1-29.1-28.7-64-63.4l-63.5-63.2z"/></svg>