<svg version="1.2" xmlns="http://www.w3.org/2000/svg" viewBox="0 0 1024 1024" width="1024" height="1024"><style>.a{fill:#1e252f}</style><path fill-rule="evenodd" class="a" d="m603 139.3c-1.9 0.7-4.4 2.6-5.6 4.2-1.1 1.7-7.9 10.6-15 20-7.1 9.3-22.3 29.4-33.7 44.5-11.4 15.1-24.7 32.7-29.5 39-4.9 6.3-14.3 18.7-21 27.5-6.7 8.8-21.1 27.7-32 42-10.8 14.3-28 37-38.2 50.5-10.2 13.5-24 31.7-30.7 40.5-6.7 8.8-17.1 22.5-23.2 30.5-6.1 8-24.4 32-40.5 53.5-21.8 28.9-29.7 40.1-30.5 43.2-0.7 2.9-0.8 5.6-0.1 8 0.5 2.1 1.9 4.8 3.2 5.9 1.3 1.2 3.3 2.7 4.6 3.3 1.6 0.8 25.6 1.1 84.7 1.1 81.2 0 82.5 0 84.5 2 1.1 1.1 2 2.5 2 3 0 0.5-0.6 2.9-1.4 5.2-0.8 2.4-3.1 9.9-5.1 16.8-2 6.9-7 23.3-11 36.5-4 13.2-11.7 38.4-17 56-5.3 17.6-13.9 46-19 63-5.1 17-14.2 46.7-20 66-5.9 19.2-11.4 37.5-12.3 40.5-0.8 3.1-1.2 6.7-0.9 8.2 0.4 1.6 2.1 3.6 4 4.8 1.7 1.1 4.4 2 6 2 1.5 0 3.9-0.7 5.5-1.6 1.5-0.8 7.1-7.5 12.4-14.7 5.4-7.3 13-17.5 17.1-22.7 4-5.2 15.1-19.9 24.7-32.5 9.6-12.6 22.6-29.8 28.9-38 6.3-8.3 18-23.5 26-34 7.9-10.5 18.8-24.6 24.1-31.5 5.3-6.9 16.6-21.7 25.1-33 8.6-11.3 20.4-26.8 26.3-34.5 5.9-7.7 18-23.7 27-35.5 9-11.8 19.4-25.3 23-30 3.6-4.7 13.1-17 21-27.5 7.9-10.5 19-25.1 24.7-32.5 5.6-7.4 15-19.8 20.9-27.5 5.9-7.7 11.2-15 11.8-16.3 0.7-1.2 1.2-3.7 1.2-5.5 0-1.7-0.9-4.7-2-6.5-1.1-1.7-3.5-4.1-5.3-5.2-3.1-2-5-2-86.2-2-75.7 0.1-83.1-0.1-84.5-1.6-1.2-1.3-1.3-2.3-0.4-5.7 0.6-2.3 5-18.2 9.8-35.2 4.9-17.1 12.1-42.7 16.1-57 4.1-14.3 11.2-39.7 16-56.5 4.7-16.8 11.5-40.6 15-53 3.5-12.4 8.9-31.7 12-43 3-11.3 5.5-21.7 5.5-23.3 0-1.5-0.7-4.2-1.5-6-0.8-1.7-2.8-4-4.5-5-1.6-0.9-4.2-1.7-5.8-1.7-1.5 0.1-4.3 0.6-6.2 1.3z"/></svg>