<svg version="1.2" xmlns="http://www.w3.org/2000/svg" viewBox="0 0 1024 1024" width="1024" height="1024"><style>.a{fill:#232a34}</style><path fill-rule="evenodd" class="a" d="m618.8 210.6c-3 0.9-6.3 2.9-8.8 5.4-2.7 2.7-4.5 5.7-5.5 9.3-0.9 3-1.3 6.9-1 9.2 0.3 2.2 1.9 6.1 3.5 8.8 1.9 2.9 4.8 5.7 7.8 7.5l4.7 2.7 95 1c-217.6 217.8-242.6 243.4-244.8 247.6-2.1 4.1-2.8 6.8-2.7 10.9 0 4.2 0.7 6.7 3 10.8 2.1 3.7 4.4 6 7.8 8 3.9 2.2 5.8 2.7 11.2 2.6 4.6 0 7.7-0.7 10.8-2.2 2.8-1.5 43.7-41.7 125.6-123.7 66.7-66.8 121.9-121.5 122.5-121.5 0.8 0 1.1 12.6 1.1 46 0 39.3 0.2 46.5 1.6 49.8 0.8 2 2.7 5 4.2 6.5 1.5 1.6 4.3 3.7 6.2 4.7 1.9 1 6 2.1 9 2.3 4.1 0.4 6.7 0 10-1.4 2.5-1.1 6-3.4 7.8-5.2 1.8-1.8 4.2-5.6 5.2-8.4 1.9-5.1 2-8.1 2-79 0-55-0.3-74.8-1.2-77.8-0.7-2.2-3.1-5.8-5.3-8.1-2.4-2.4-6-4.7-9-5.7-4.5-1.6-11.8-1.7-80.5-1.6-62.4 0-76.3 0.3-80.2 1.5zm-370.3 143.3c-1.6 0.4-4.3 1.5-6 2.3-1.6 0.9-4.4 3.1-6.1 5-1.8 1.8-4 4.9-5 6.8-1.8 3.4-1.9 10.4-1.9 205v201.5c3.3 6.2 5.6 9.2 7.2 10.6 1.5 1.5 4.4 3.5 6.3 4.5 3.4 1.8 10.6 1.9 202.5 2.2 145.1 0.2 200.1 0 203-0.8 2.2-0.7 5.7-2.2 7.8-3.6 2-1.3 4.9-4.5 6.5-7.1l2.7-4.8c0.5-231.6 0.3-248.6-1-252.5-0.8-2.5-3.2-6.2-5.2-8.2-2.1-2-5.8-4.4-8.3-5.3-2.5-0.8-5.8-1.5-7.5-1.5-1.7 0-4.6 0.5-6.5 1-1.9 0.6-5.2 2.3-7.3 3.8-2.3 1.6-4.9 4.8-6.3 7.7l-2.4 5v222.5h-347v-350h214.5c7.8-3.7 11.1-6.3 12.5-8.2 1.4-1.8 3.1-4.5 3.8-6.1 0.7-1.5 1.2-5.1 1.2-8 0-2.8-0.9-7-1.8-9.2-1-2.2-3.8-5.7-6.3-7.7-2.4-2.1-6.3-4.2-8.6-4.8-2.8-0.6-45.4-1-121-0.9-64.3 0.1-118.1 0.4-119.8 0.8z"/></svg>