<svg version="1.2" xmlns="http://www.w3.org/2000/svg" viewBox="0 0 1024 1024" width="1024" height="1024"><style>.a{fill:#1d2228}</style><path fill-rule="evenodd" class="a" d="m516.5 281.6c12.1 0.2 24.5 0.7 27.5 1 3 0.3 13.1 1.8 22.5 3.4 9.4 1.6 23.1 4.5 30.5 6.4 7.4 1.9 21.1 6.1 30.5 9.4 9.4 3.2 22.6 8.3 29.5 11.2 6.9 2.9 18.7 8.3 26.3 12.1 7.5 3.8 20.6 11 28.9 16 8.4 5.1 19.6 12 24.8 15.4 5.2 3.5 15.8 11 23.5 16.7 7.7 5.8 17.6 13.5 22 17.3 4.4 3.7 14.5 12.7 22.5 20 8 7.3 21.5 20.9 30.1 30.2 8.6 9.2 18.4 19.9 21.6 23.8 3.3 3.9 9.5 11.5 13.8 17 4.3 5.5 9 12.5 10.4 15.5 1.7 3.7 2.6 7.6 2.8 12 0.2 5.4-0.2 7.5-2.6 12.5-1.5 3.3-6.7 11-11.6 17-4.9 6-13.4 16.1-18.9 22.2-5.6 6.2-17.1 18.2-25.6 26.6-8.5 8.4-20.2 19.6-26 24.9-5.8 5.3-14.3 12.7-19 16.6-4.7 3.8-14.4 11.3-21.5 16.7-7.1 5.4-19.3 13.9-27 19-7.7 5.1-20.1 12.7-27.5 17-7.4 4.3-20.3 11.1-28.5 15-8.3 4-20 9.3-26 11.8-6 2.5-17.8 6.8-26 9.5-8.3 2.8-19.5 6.2-25 7.6-5.5 1.3-14.7 3.4-20.5 4.6-5.8 1.1-12.1 2.3-14 2.6-1.9 0.3-6 0.9-9 1.5-3 0.5-13.1 1.5-22.5 2.1-13 0.9-21.6 0.9-36.5 0-10.7-0.7-25.1-2.1-32-3.3-6.9-1.1-15.6-2.7-19.5-3.5-3.9-0.8-10.8-2.5-15.5-3.6-4.7-1.1-14.4-3.8-21.5-6-7.1-2.2-20.4-6.9-29.5-10.5-9.1-3.6-22.8-9.7-30.5-13.5-7.7-3.9-20.1-10.4-27.5-14.6-7.4-4.2-20.5-12.3-29-18-8.5-5.7-20.4-14.1-26.5-18.7-6.1-4.6-15.5-12.1-21-16.6-5.5-4.6-15.8-13.8-23-20.5-7.1-6.6-19.2-18.6-26.9-26.5-7.6-7.9-18.9-20.3-25.1-27.4-6.1-7.2-13.6-16.2-16.5-20-2.9-3.9-6.4-9.3-7.6-12-1.8-3.7-2.4-6.8-2.4-12 0-5.8 0.5-8 3-13 1.7-3.3 6.5-10.3 10.8-15.6 4.2-5.3 13.4-16.1 20.3-24 7-7.9 18.9-20.7 26.6-28.4 7.6-7.7 21.5-20.7 30.8-28.9 9.4-8.2 23.7-19.9 32-26.1 8.2-6.2 21.5-15.5 29.5-20.7 8-5.3 19.4-12.4 25.5-15.9 6.1-3.4 19.6-10.4 30-15.5 10.4-5 23.1-10.8 28-12.7 4.9-1.9 13.7-5.1 19.5-7.2 5.8-2 15.9-5.2 22.5-7.1 6.6-1.9 19.6-5 29-6.9 9.4-1.8 19.9-3.7 23.5-4 3.6-0.4 9.9-1.1 14-1.6 4.1-0.4 17.4-0.6 29.5-0.3zm-34.5 46c-6.3 0.8-16 2.3-21.5 3.4-5.5 1-14.1 2.9-19 4.1-4.9 1.1-15.5 4.3-23.5 6.9-8 2.6-18.8 6.4-24 8.5-5.2 2-16.3 6.9-24.5 10.9-8.3 4-19.9 10.1-26 13.5-6.1 3.5-16.9 10.2-24 14.9-7.1 4.6-18.2 12.3-24.5 17.1-6.3 4.7-16.7 12.9-23 18.2-6.3 5.2-17.6 15.2-25 22.1-7.4 6.9-16.9 16.1-21.1 20.4-4.1 4.4-14.1 15.4-22.2 24.6-14.7 16.8-14.7 16.8-12.9 19 1 1.3 6.7 7.9 12.7 14.8 6 6.9 19.3 20.8 29.5 31 10.2 10.2 24.3 23.5 31.4 29.5 7 6.1 18 15 24.5 19.9 6.4 4.8 17.9 13 25.6 18.1 7.7 5.1 18.3 11.9 23.5 15 5.2 3.2 15.8 9 23.5 13 7.7 3.9 19.2 9.3 25.5 12 6.3 2.6 15.8 6.3 21 8.1 5.2 1.8 14.7 4.8 21 6.7 6.3 1.9 16.7 4.6 23 6 6.3 1.4 13.5 2.9 16 3.2 2.5 0.3 7.4 1.1 11 1.8 4.1 0.8 16.6 1.2 34 1.1 23.5 0 29.4-0.3 41-2.3 7.4-1.2 19.8-3.7 27.5-5.6 7.7-1.8 19.6-5.2 26.5-7.5 6.9-2.3 18.6-6.7 26-9.7 7.4-3 20-8.8 28-12.9 8-4 19.9-10.6 26.5-14.5 6.6-4 17.6-11.1 24.5-15.7 6.9-4.7 18.8-13.4 26.5-19.3 7.7-5.9 18.7-14.9 24.5-20 5.8-5 14.5-12.8 19.3-17.3 4.8-4.4 15.2-15.1 23.1-23.6 7.8-8.5 17.9-19.7 22.4-24.8l8.2-9.2c-22.7-26-37.4-41.6-47.4-51.5-10-9.9-22.6-21.9-28.1-26.6-5.5-4.7-15.2-12.5-21.5-17.4-6.3-4.9-18.3-13.5-26.5-19-8.3-5.5-20.4-13.2-27-16.9-6.6-3.8-17.4-9.7-24-13-6.6-3.4-17.4-8.5-24-11.3-6.6-2.8-15.8-6.5-20.5-8.2-4.7-1.6-13.9-4.5-20.5-6.5-6.6-1.9-18.5-4.8-26.5-6.5-8-1.6-20.9-3.7-28.8-4.5-8-0.9-21.6-1.5-31.5-1.5-9.4 0.1-22.4 0.8-28.7 1.5zm34.5 65c3.9 0.3 10.8 1.2 15.5 2 4.7 0.8 11.4 2.4 15 3.6 3.6 1.1 10.5 4.1 15.5 6.6 5 2.4 11.7 6.3 15 8.5 3.3 2.2 10.2 8.1 15.3 13.1 5.4 5.3 12 13.1 15.7 18.6 3.5 5.2 8 13.1 10 17.5 2 4.4 4.7 12 6 17 1.3 4.9 2.9 13.9 3.6 20 0.9 8.4 0.9 13.4 0.1 21-0.6 5.5-2.3 14.5-3.7 20-1.5 5.5-4.8 14.5-7.4 20-2.7 5.5-7.5 13.6-10.8 18-3.3 4.4-9.5 11.3-13.9 15.4-4.3 4-10.4 9.1-13.4 11.1-3 2.1-8.6 5.4-12.5 7.4-3.9 2.1-10.6 5-15 6.6-4.4 1.5-11.8 3.5-16.5 4.5-5.2 1.1-13.1 1.7-20.5 1.7-6.6 0-15.6-0.5-20-1.2-4.4-0.7-11.6-2.3-16-3.7-4.4-1.4-12.1-4.5-17-7-4.9-2.5-11.7-6.4-15-8.7-3.3-2.2-9.5-7.4-13.9-11.6-4.3-4.1-10.4-10.9-13.4-15-3.1-4.1-7.5-11.1-9.8-15.5-2.4-4.4-5.6-12-7.3-17-1.6-5-3.7-13.7-4.7-19.5-1.2-7.7-1.5-13.5-1.1-21.5 0.3-6.1 1.2-14.2 2.1-18 0.8-3.9 2.4-9.9 3.6-13.5 1.2-3.6 4.2-10.6 6.6-15.5 2.4-5 7.3-12.8 10.8-17.5 3.5-4.7 9.7-11.6 13.7-15.4 4.1-3.8 11-9.3 15.4-12.1 4.4-2.9 9.8-6.2 12-7.3 2.2-1.1 7.1-3.2 11-4.6 3.9-1.5 9.7-3.4 13-4.2 3.3-0.9 10.3-2.2 15.5-2.9 5.2-0.8 12.6-1.1 16.5-0.9z"/></svg>